<svg width="18" height="18" viewBox="0 0 18 18" fill="none" xmlns="http://www.w3.org/2000/svg">
    <g clip-path="url(#clip0_10206_8528)">
        <path
            d="M3.56425 5.99545C4.0514 5.58124 4.5856 5.16267 5.13731 4.79883C4.71838 6.18226 4.63909 9.1593 7.82282 9.66045C10.2135 10.0369 10.8169 10.7953 10.5369 14.5803C10.0446 14.8124 9.55603 15.0052 9.05664 15.1841C9.37272 13.615 9.72202 10.8004 7.44343 10.3418C4.66708 9.78317 3.22595 9.41656 3.56425 5.99545Z"
            fill="#13C2C2" />
        <path
            d="M5.51585 4.55116C5.98893 4.25067 6.45682 3.99026 6.98217 3.70898C6.44126 6.24269 6.62223 8.44001 9.58863 8.90341C11.3452 9.17798 12.7082 9.81327 12.3562 13.5829C11.8902 13.8811 11.4638 14.1132 10.9912 14.3622C11.2514 12.8579 11.2582 9.82114 9.17777 9.50093C6.05006 9.01904 5.10383 8.16462 5.51585 4.55116Z"
            fill="#13C2C2" />
        <path
            d="M7.41954 3.49866C7.91203 3.27836 8.60022 2.98375 8.87264 2.9082C8.33547 4.81372 8.60868 7.82884 11.0525 8.22933C13.3379 8.6042 14.3883 9.8795 14.1465 12.3074C13.6816 12.6752 13.2546 12.9903 12.7798 13.3093C13.1845 10.9727 12.3158 8.98461 10.7004 8.75012C7.23109 8.2466 6.84265 6.79467 7.41954 3.49866Z"
            fill="#13C2C2" />
        <path
            d="M2.84769 6.66992C0.595256 8.79687 -0.612011 11.6374 0.313204 13.7034C1.368 16.0581 5.2333 16.49 8.23603 15.4283C8.87373 12.6464 9.19746 11.1012 6.6425 10.6095C2.92083 9.8928 2.87716 8.41966 2.84769 6.66992Z"
            fill="#13C2C2" />
        <mask id="mask0_10206_8528" style="mask-type:luminance" maskUnits="userSpaceOnUse" x="9" y="2" width="9"
            height="10">
            <path d="M9.27148 2.11719H18V11.5276H9.27148V2.11719Z" fill="white" />
        </mask>
        <g mask="url(#mask0_10206_8528)">
            <path
                d="M15.0078 11.5276C17.212 9.37317 18.7393 6.44183 17.6282 4.26923C16.3726 1.81341 12.4061 1.74577 9.6932 2.65013C8.89542 4.82351 9.11518 7.53023 11.3494 7.85516C14.5938 8.3268 14.723 9.68552 15.0078 11.5276Z"
                fill="#13C2C2" />
        </g>
        <path
            d="M3.56425 5.99389C4.0514 5.57968 4.5856 5.16111 5.13731 4.79688C4.71838 6.18074 4.63909 9.15735 7.82282 9.65853C10.2135 10.035 10.8169 10.7938 10.5369 14.5784C10.0446 14.8109 9.55603 15.0036 9.05664 15.1826C9.37272 13.6134 9.72202 10.7989 7.44343 10.3402C4.66708 9.78161 3.22595 9.41504 3.56425 5.99389Z"
            fill="#13C2C2" />
        <path
            d="M5.51585 4.54964C5.98893 4.24872 6.45682 3.98869 6.98217 3.70703C6.44126 6.24113 6.62223 8.43848 9.58863 8.90189C11.3452 9.17642 12.7082 9.8117 12.3562 13.5813C11.8902 13.8796 11.4638 14.1116 10.9912 14.3606C11.2514 12.8564 11.2582 9.81958 9.17777 9.49901C6.05006 9.01752 5.10383 8.16313 5.51585 4.54964Z"
            fill="#13C2C2" />
        <path
            d="M7.41954 3.49905C7.91203 3.2784 8.60022 2.98372 8.87264 2.9082C8.33547 4.81411 8.60868 7.82923 11.0525 8.22972C13.3379 8.6042 14.3883 9.87989 14.1465 12.3078C13.6816 12.6751 13.2546 12.9903 12.7798 13.3093C13.1845 10.973 12.3158 8.985 10.7004 8.75016C7.23109 8.24664 6.84265 6.7951 7.41954 3.49905Z"
            fill="#13C2C2" />
    </g>
    <defs>
        <clipPath id="clip0_10206_8528">
            <rect width="18" height="18" fill="white" />
        </clipPath>
    </defs>
</svg>
