<svg t="1701152250964" class="icon" viewBox="0 0 1024 1024" version="1.1" xmlns="http://www.w3.org/2000/svg"
    p-id="13886" width="200" height="200" fill="#8A9997">
    <path
        d="M512 896C192 896 12.8 546.133333 4.266667 529.066667c-4.266667-12.8-4.266667-25.6 0-38.4C12.8 477.866667 192 128 512 128s499.2 349.866667 507.733333 366.933333c4.266667 12.8 4.266667 25.6 0 38.4-8.533333 12.8-187.733333 362.666667-507.733333 362.666667z m-422.4-384c38.4 68.266667 192 298.666667 422.4 298.666667s379.733333-230.4 422.4-298.666667c-38.4-68.266667-192-298.666667-422.4-298.666667s-379.733333 230.4-422.4 298.666667z"
        p-id="13887"></path>
    <path
        d="M512 682.666667c-93.866667 0-170.666667-76.8-170.666667-170.666667s76.8-170.666667 170.666667-170.666667 170.666667 76.8 170.666667 170.666667-76.8 170.666667-170.666667 170.666667z m0-256c-46.933333 0-85.333333 38.4-85.333333 85.333333s38.4 85.333333 85.333333 85.333333 85.333333-38.4 85.333333-85.333333-38.4-85.333333-85.333333-85.333333z"
        p-id="13888"></path>
</svg>