<?xml version="1.0" standalone="no"?><!DOCTYPE svg PUBLIC "-//W3C//DTD SVG 1.1//EN" "http://www.w3.org/Graphics/SVG/1.1/DTD/svg11.dtd"><svg t="1647232934158" class="icon" viewBox="0 0 1024 1024" version="1.1" xmlns="http://www.w3.org/2000/svg" p-id="314458" xmlns:xlink="http://www.w3.org/1999/xlink" width="32" height="32"><defs><style type="text/css"></style></defs><path d="M87.064 717.795A291.038 291.038 0 0 1 1.549 512a291.737 291.737 0 0 1 291.31-291.31H731.14a291.271 291.271 0 0 1 0 582.62H292.86a290.805 290.805 0 0 1-205.795-85.515zM71.74 512a221.133 221.133 0 0 0 221.284 221.283h437.952a221.366 221.366 0 0 0 0-442.566H293.024A221.133 221.133 0 0 0 71.74 512z" fill="#333303" p-id="314459"></path><path d="M464.717 714.83a34.486 34.486 0 0 1-9.886-25.375l2.472-355.734a35.178 35.178 0 0 1 70.356 0.165l-2.966 356.228a34.953 34.953 0 0 1-34.93 34.93 34.486 34.486 0 0 1-25.046-10.215z" fill="#333303" p-id="314460"></path><path d="M275.866 654.98c-8.022 0-85.6-63.635-114.994-102.174-20.197-18.811-36.546-53.912-36.546-78.663 0-52.54 37.72-95.279 84.084-95.279 28.313 0 52.343 23.903 67.169 48.6 14.825-24.697 38.847-48.6 67.168-48.6 46.365 0 84.085 42.739 84.085 95.279 0 24.807-16.426 59.97-36.717 78.822-29.674 39.031-105.76 102.016-114.249 102.016z m-67.455-259.874c-37.588 0-68.164 35.458-68.164 79.037 0 20.62 14.562 51.335 31.804 67.069 0.358 0.333 0.7 0.698 0.995 1.094 29.06 38.511 86.946 82.792 102.882 94.624 16.637-12.26 73.761-56.93 101.996-94.457 0.312-0.397 0.654-0.77 1.027-1.11 17.321-15.774 31.959-46.553 31.959-67.22 0-43.579-30.576-79.037-68.163-79.037-24.403 0-47.71 26.536-59.977 52.834-2.643 5.663-11.74 5.663-14.382 0-12.268-26.298-35.575-52.834-59.977-52.834z" fill="#333303" p-id="314461"></path><path d="M672.145 391.733V619.79H608.86V497.527c0-17.66-0.478-28.276-1.398-31.848-0.956-3.571-3.53-6.283-7.759-8.102-4.229-1.819-13.642-2.745-28.278-2.745h-6.251v-26.589c30.595-5.92 53.835-18.09 69.72-36.51z m173.934 77.22v76.064c0 17.296-1.03 29.863-3.126 37.767-2.096 7.904-6.435 15.246-13.017 22.124-6.583 6.846-14.525 11.774-23.829 14.783-9.303 3.01-19.673 4.498-31.183 4.498-15.15 0-27.726-1.588-37.765-4.73-10.04-3.141-18.019-8.036-23.976-14.716-5.957-6.68-10.186-13.691-12.686-21.066-2.501-7.375-3.751-19.082-3.751-35.155v-79.569c0-20.933 2.022-36.61 6.03-47.06 4.009-10.417 12.025-18.784 23.976-25.067 11.951-6.284 26.44-9.426 43.465-9.426 13.9 0 26.33 2.183 37.287 6.549 10.959 4.365 19.159 9.69 24.601 15.973 5.443 6.283 9.12 13.394 11.032 21.264 1.986 7.904 2.942 20.471 2.942 37.767z m-63.286-19.18c0-12.105-0.662-19.711-1.949-22.753-1.323-3.043-4.376-4.564-9.156-4.564-4.707 0-7.796 1.62-9.34 4.861-1.508 3.241-2.28 10.715-2.28 22.455v111.284c0 13.229 0.699 21.232 2.133 23.944 1.397 2.711 4.45 4.1 9.156 4.1 4.707 0 7.796-1.587 9.23-4.795 1.47-3.208 2.206-10.384 2.206-21.562z" p-id="314462"></path></svg>