<?xml version="1.0" standalone="no"?><!DOCTYPE svg PUBLIC "-//W3C//DTD SVG 1.1//EN" "http://www.w3.org/Graphics/SVG/1.1/DTD/svg11.dtd"><svg t="1647193007917" class="icon" viewBox="0 0 1024 1024" version="1.1" xmlns="http://www.w3.org/2000/svg" p-id="122799" xmlns:xlink="http://www.w3.org/1999/xlink" width="32" height="32"><defs><style type="text/css"></style></defs><path d="M896.81 319.94h-768.3c-35.35 0-64 28.65-64 64v256c0 35.35 28.65 64 64 64h768.3c35.35 0 64-28.65 64-64v-256c0-35.35-28.65-64-64-64zM345.2 600.74l-12.48-45.6h-57.6l-12.48 45.6h-36l56.88-177.6h41.76l57.12 177.6h-37.2z m535.61 39.2h-336v-256h336c8.84 0 16 7.16 16 16v224c0 8.84-7.16 16-16 16z" p-id="122800"></path><path d="M304.15 450.02h-0.96c-4.56 19.44-9.84 39.6-15.12 58.08l-5.28 19.44h42.24l-5.28-19.44c-5.52-18.48-10.32-38.88-15.6-58.08zM753.57 506.42v-1.2c15.12-5.28 24.24-22.08 24.24-38.4 0-33.12-27.84-43.68-64.32-43.68h-58.8v177.6h63.36c39.12 0 68.88-16.56 68.88-52.32 0.01-24-14.15-37.44-33.36-42z m-63.36-56.16h21.12c21.36 0 31.92 6.24 31.92 21.84 0 14.16-9.84 23.28-32.4 23.28h-20.64v-45.12z m24.72 123.12h-24.72v-51.6h24.72c24.48 0 37.44 7.2 37.44 24.48 0.01 18.48-13.2 27.12-37.44 27.12z" p-id="122801"></path></svg>