<?xml version="1.0" standalone="no"?><!DOCTYPE svg PUBLIC "-//W3C//DTD SVG 1.1//EN" "http://www.w3.org/Graphics/SVG/1.1/DTD/svg11.dtd"><svg t="1647188305878" class="icon" viewBox="0 0 1024 1024" version="1.1" xmlns="http://www.w3.org/2000/svg" p-id="18274" xmlns:xlink="http://www.w3.org/1999/xlink" width="32" height="32"><defs><style type="text/css"></style></defs><path d="M917.077333 839.168a35.797333 35.797333 0 0 1-35.754666 35.754667H340.608a35.797333 35.797333 0 0 1-35.754667-35.754667V376.576c0-19.712 16.042667-35.754667 35.754667-35.754667h540.714667c19.712 0 35.754667 16.042667 35.754666 35.754667v462.592zM881.322667 255.488H340.608A121.258667 121.258667 0 0 0 219.52 376.576v462.592A121.258667 121.258667 0 0 0 340.608 960.256h540.714667a121.258667 121.258667 0 0 0 121.088-121.088V376.576A121.258667 121.258667 0 0 0 881.322667 255.488z" p-id="18275"></path><path d="M142.421333 656.768A35.797333 35.797333 0 0 1 106.666667 621.013333V185.088c0-19.712 16.042667-35.754667 35.754666-35.754667h497.877334c19.712 0 35.754667 16.042667 35.754666 35.754667a42.666667 42.666667 0 1 0 85.333334 0A121.258667 121.258667 0 0 0 640.298667 64H142.378667A121.258667 121.258667 0 0 0 21.333333 185.088v435.925333a121.258667 121.258667 0 0 0 121.088 121.088 42.666667 42.666667 0 1 0 0-85.333333" p-id="18276"></path><path d="M726.101333 740.608H376.149333a34.133333 34.133333 0 1 0 0 68.266667h349.952a34.176 34.176 0 0 0 0-68.266667M376.106667 675.029333h239.530666a34.133333 34.133333 0 1 0 0-68.266666H376.106667a34.176 34.176 0 0 0 0 68.266666M870.314667 400.426667a34.133333 34.133333 0 0 0-48.256 0l-29.056 29.013333-29.013334-29.013333a34.133333 34.133333 0 0 0-48.256 48.213333l29.013334 29.013333-29.013334 29.013334a34.090667 34.090667 0 1 0 48.213334 48.298666l29.013333-29.056 29.056 29.013334a33.962667 33.962667 0 0 0 48.298667 0 34.133333 34.133333 0 0 0 0-48.213334l-29.056-29.013333 29.013333-29.013333a34.133333 34.133333 0 0 0 0-48.256" p-id="18277"></path></svg>