<?xml version="1.0" standalone="no"?><!DOCTYPE svg PUBLIC "-//W3C//DTD SVG 1.1//EN" "http://www.w3.org/Graphics/SVG/1.1/DTD/svg11.dtd"><svg t="1647190734714" class="icon" viewBox="0 0 1024 1024" version="1.1" xmlns="http://www.w3.org/2000/svg" p-id="94165" xmlns:xlink="http://www.w3.org/1999/xlink" width="32" height="32"><defs><style type="text/css"></style></defs><path d="M928 192c35.328 0 64 30.336 64 67.776v504.448c0 37.44-28.672 67.776-64 67.776h-832c-35.328 0-64-30.336-64-67.776V259.84C32 222.336 60.672 192 96 192h832z m0 64h-832v512h832V256zM419.84 366.848a160 160 0 0 1 20.48 201.344l92.672 92.8-45.248 45.312-92.736-92.8a160 160 0 1 1 24.896-246.656z m-180.992 45.248a96 96 0 1 0 135.808 135.808 96 96 0 0 0-135.808-135.808z" fill="#000000" fill-opacity=".65" p-id="94166"></path></svg>