<?xml version="1.0" standalone="no"?><!DOCTYPE svg PUBLIC "-//W3C//DTD SVG 1.1//EN" "http://www.w3.org/Graphics/SVG/1.1/DTD/svg11.dtd"><svg t="1647236692596" class="icon" viewBox="0 0 1024 1024" version="1.1" xmlns="http://www.w3.org/2000/svg" p-id="32125" xmlns:xlink="http://www.w3.org/1999/xlink" width="32" height="32"><defs><style type="text/css"></style></defs><path d="M310.784 500.736c-7.68 0-29.696-7.68-59.904-14.848s-52.736-14.848-59.904-22.528c-7.68-7.68-7.68-14.848-7.68-22.528 0-14.848 7.68-22.528 14.848-29.696 7.68-7.68 22.528-14.848 45.056-14.848s37.376 7.68 52.224 14.848c7.68 7.68 14.848 22.528 22.528 37.376h37.376c0-14.848-7.68-29.696-14.848-45.056-14.848-14.848-22.528-22.528-37.376-29.696s-37.376-7.68-59.904-7.68-37.376 0-52.224 7.68-22.528 14.848-29.696 29.696c-7.68 14.848-14.848 22.528-14.848 37.376s0 22.528 7.68 37.376c7.68 7.68 14.848 22.528 29.696 22.528 14.848 7.68 29.696 14.848 59.904 22.528s45.056 7.68 52.224 14.848c14.848 7.68 22.528 7.68 22.528 14.848 7.68 7.68 7.68 14.848 7.68 22.528s0 14.848-7.68 22.528-14.848 14.848-29.696 14.848c-7.68 7.68-22.528 7.68-37.376 7.68s-29.696 0-45.056-7.68l-22.528-22.528c-7.68-7.68-14.848-22.528-14.848-29.696H131.584c0 22.528 7.68 37.376 14.848 52.224s22.528 22.528 37.376 29.696c22.528 7.68 45.056 14.848 74.752 14.848 22.528 0 37.376 0 52.224-7.68s29.696-14.848 37.376-29.696c7.68-22.528 7.68-37.376 7.68-52.224s-7.68-29.696-14.848-37.376c-0.512-7.168-15.36-22.016-30.208-29.696z m321.024-126.976h-52.224l-134.656 134.656V373.76h-37.376v276.48h37.376v-97.28l45.056-45.056 97.28 141.824h52.224l-119.808-164.352 112.128-111.616z m224.768 157.184c0 37.376-7.68 59.904-14.848 74.752-14.848 14.848-29.696 14.848-59.904 14.848-14.848 0-29.696 0-37.376-7.68s-22.528-14.848-22.528-29.696c-7.68-14.848-7.68-29.696-7.68-52.224V373.76h-45.056v164.352c0 29.696 0 52.224 7.68 67.072s22.528 29.696 37.376 37.376 37.376 14.848 67.072 14.848 52.224-7.68 67.072-14.848 29.696-22.528 37.376-37.376 7.68-45.056 7.68-74.752V373.76h-37.376v157.184h0.512z" p-id="32126"></path><path d="M923.136 11.264H100.864c-52.224 0-89.6 44.544-89.6 89.6v822.272c0 52.224 45.056 89.6 89.6 89.6h822.272c52.224 0 89.6-45.056 89.6-89.6V100.864c7.68-45.056-37.376-89.6-89.6-89.6z m35.328 889.856c0 28.16-20.992 56.832-56.832 56.832H123.392c-28.16 0-56.832-20.992-56.832-56.832V122.88c0-28.16 20.992-56.832 56.832-56.832h778.752c28.16 0 56.832 20.992 56.832 56.832v778.24z" p-id="32127"></path></svg>