<?xml version="1.0" standalone="no"?><!DOCTYPE svg PUBLIC "-//W3C//DTD SVG 1.1//EN" "http://www.w3.org/Graphics/SVG/1.1/DTD/svg11.dtd"><svg t="1647192468223" class="icon" viewBox="0 0 1024 1024" version="1.1" xmlns="http://www.w3.org/2000/svg" p-id="94988" xmlns:xlink="http://www.w3.org/1999/xlink" width="32" height="32"><defs><style type="text/css"></style></defs><path d="M925.696 711.168h-58.368v-46.08h58.368V240.64h-58.368v-46.08h58.368c25.6 0 46.592 20.48 47.104 46.08v424.96c0 25.6-20.992 46.08-47.104 45.568z m-131.584 65.536H231.424c-25.6 0-46.592-20.48-47.104-46.08V177.152c0-25.6 20.992-46.08 47.104-46.08h562.688c25.6 0 46.592 20.48 47.104 46.08v553.472c-0.512 25.6-21.504 46.08-47.104 46.08z m-562.688-46.08h2.048c-0.512-0.512-1.024-1.024-2.048-1.536v1.536zM794.112 177.152H231.424v463.872l20.48-23.04 135.168-122.88 135.168 122.88 90.112-76.8 182.272 188.928-0.512-552.96zM558.08 366.08c-1.024-48.64 37.888-88.576 86.528-89.088 48.64-1.024 88.576 37.888 89.088 86.528 1.024 48.64-37.888 88.576-86.528 89.088h-1.536c-48.128 0.512-87.04-38.4-87.552-86.528z m-506.88 299.008v-424.96c0-25.6 20.992-46.08 47.104-46.08h58.368v46.08H98.304v424.96h58.368v46.08H98.304c-26.112 0-47.104-20.48-47.104-46.08z m335.872 177.664c13.824 0 25.088 10.752 25.088 24.576 0 13.824-10.752 25.088-24.576 25.088-13.824 0-25.088-10.752-25.088-24.576v-0.512c0-13.312 10.752-24.064 24.576-24.576z m115.2 0c13.824 0 25.088 11.264 25.088 24.576 0 13.824-11.264 25.088-24.576 25.088-13.824 0-25.088-11.264-25.088-24.576-0.512-13.824 10.752-24.576 24.576-25.088z m115.2 0c13.824 0 25.088 11.264 25.088 25.088s-11.264 25.088-25.088 25.088-25.088-11.264-25.088-25.088c0.512-13.824 11.776-25.088 25.088-25.088z" p-id="94989"></path></svg>