<?xml version="1.0" standalone="no"?><!DOCTYPE svg PUBLIC "-//W3C//DTD SVG 1.1//EN" "http://www.w3.org/Graphics/SVG/1.1/DTD/svg11.dtd"><svg t="1647188826703" class="icon" viewBox="0 0 1024 1024" version="1.1" xmlns="http://www.w3.org/2000/svg" p-id="36711" xmlns:xlink="http://www.w3.org/1999/xlink" width="32" height="32"><defs><style type="text/css"></style></defs><path d="M947.837902 679.868852l70.840655-0.016786v71.377836h-70.807082l-0.033573-71.344263zM160.98623 751.246689v-63.43764h78.680131v63.43764H160.98623z m157.377049 0v-63.43764h78.680131v63.43764h-78.680131z m157.377049 0v-63.43764h78.680131v63.43764H475.740328z m157.377049 0v-63.43764h78.680131v63.43764h-78.680131z m157.377049 0v-63.43764h78.680131v63.43764H790.494426z m-779.028983 0v-71.377837l70.840655 0.033574-0.033573 71.344263H11.48223z m0-501.776787V163.403541h62.950819v86.049574H11.48223z m0 172.166295v-86.083148h62.950819v86.083148H11.48223z m0 172.149508v-86.083148h62.950819v86.083148H11.48223z m0-587.843148h70.807082l0.05036 71.344263-70.857442 0.05036V5.92577z m779.012196 63.454427V5.92577h78.696918v63.454427H790.494426z m-157.377049 0V5.92577h78.680131v63.454427h-78.680131z m-157.377049 0V5.92577h78.680131v63.454427H475.740328z m-157.377049 0V5.92577h78.696918v63.454427h-78.696918z m-157.377049 0V5.92577h78.680131v63.454427H160.98623zM947.871475 5.92577h70.823869v71.394623l-70.857442-0.033573 0.033573-71.36105z m7.87305 243.527345V163.403541h62.950819v86.049574h-62.950819z m0 172.166295v-86.083148h62.950819v86.083148h-62.950819z m0 172.149508v-86.083148h62.950819v86.083148h-62.950819zM66.543213 965.548066h204.615344v-122.88H66.56v122.88z m228.217705 47.590819h-251.803279a23.703082 23.703082 0 0 1-23.60236-23.787016V818.881049c0-13.127344 10.575738-23.787016 23.60236-23.787016h251.803279c13.026623 0 23.602361 10.659672 23.602361 23.787016v170.47082c0 13.127344-10.575738 23.787016-23.602361 23.787016z m118.011803-47.590819h204.615345v-122.88H412.789508v122.88z m228.217705 47.590819h-251.803278a23.703082 23.703082 0 0 1-23.602361-23.787016V818.881049c0-13.127344 10.575738-23.787016 23.602361-23.787016h251.803278c13.026623 0 23.602361 10.659672 23.602361 23.787016v170.47082c0 13.127344-10.575738 23.787016-23.602361 23.787016z m118.011804-47.590819h204.615344v-122.88H759.019016v122.88z m228.217704 47.590819h-251.803278a23.703082 23.703082 0 0 1-23.602361-23.787016V818.881049c0-13.127344 10.575738-23.787016 23.602361-23.787016h251.803278c13.026623 0 23.602361 10.659672 23.602361 23.787016v170.47082c0 13.127344-10.575738 23.787016-23.602361 23.787016z" fill="#555555" p-id="36712"></path></svg>