<?xml version="1.0" standalone="no"?><!DOCTYPE svg PUBLIC "-//W3C//DTD SVG 1.1//EN" "http://www.w3.org/Graphics/SVG/1.1/DTD/svg11.dtd"><svg t="1647190584064" class="icon" viewBox="0 0 1024 1024" version="1.1" xmlns="http://www.w3.org/2000/svg" p-id="84397" xmlns:xlink="http://www.w3.org/1999/xlink" width="32" height="32"><defs><style type="text/css"></style></defs><path d="M384 128H213.333333a85.333333 85.333333 0 0 0-85.333333 85.333333v170.666667a85.333333 85.333333 0 0 0 85.333333 85.333333h170.666667a85.333333 85.333333 0 0 0 85.333333-85.333333V213.333333a85.333333 85.333333 0 0 0-85.333333-85.333333zM810.666667 128h-170.666667a85.333333 85.333333 0 0 0-85.333333 85.333333v170.666667a85.333333 85.333333 0 0 0 85.333333 85.333333h170.666667a85.333333 85.333333 0 0 0 85.333333-85.333333V213.333333a85.333333 85.333333 0 0 0-85.333333-85.333333zM384 554.666667H213.333333a85.333333 85.333333 0 0 0-85.333333 85.333333v170.666667a85.333333 85.333333 0 0 0 85.333333 85.333333h170.666667a85.333333 85.333333 0 0 0 85.333333-85.333333v-170.666667a85.333333 85.333333 0 0 0-85.333333-85.333333zM810.666667 554.666667h-170.666667a85.333333 85.333333 0 0 0-85.333333 85.333333v170.666667a85.333333 85.333333 0 0 0 85.333333 85.333333h170.666667a85.333333 85.333333 0 0 0 85.333333-85.333333v-170.666667a85.333333 85.333333 0 0 0-85.333333-85.333333z" p-id="84398"></path></svg>