<svg width="24" height="24" viewBox="0 0 24 24" fill="none" xmlns="http://www.w3.org/2000/svg">
<path d="M2 2H22V22H2V2Z" fill="white" fillOpacity="0.01"/>
<path d="M6 4H18" stroke="#8CA2A5" strokeLinecap="round"/>
<path d="M6 20H18" stroke="#8CA2A5" strokeLinecap="round"/>
<path d="M18.8335 2.66602H20.5C20.6094 2.66602 20.7178 2.68757 20.8189 2.72946C20.9201 2.77134 21.0119 2.83274 21.0893 2.91013C21.1667 2.98752 21.2281 3.0794 21.27 3.18052C21.3119 3.28164 21.3335 3.39002 21.3335 3.49947V5.16602C21.3335 5.27547 21.3119 5.38385 21.27 5.48497C21.2281 5.58608 21.1667 5.67796 21.0893 5.75536C21.0119 5.83275 20.9201 5.89414 20.8189 5.93603C20.7178 5.97791 20.6094 5.99947 20.5 5.99947H18.8335C18.724 5.99947 18.6156 5.97791 18.5145 5.93603C18.4134 5.89414 18.3215 5.83275 18.2441 5.75536C18.1667 5.67796 18.1053 5.58608 18.0634 5.48497C18.0216 5.38385 18 5.27547 18 5.16602V3.49947C18 3.39002 18.0216 3.28164 18.0634 3.18052C18.1053 3.0794 18.1667 2.98752 18.2441 2.91013C18.3215 2.83274 18.4134 2.77134 18.5145 2.72946C18.6156 2.68757 18.724 2.66602 18.8335 2.66602Z" stroke="#8CA2A5" strokeLinejoin="round"/>
<path d="M3.49996 2.66602H5.1665C5.38755 2.66602 5.59954 2.75383 5.75585 2.91013C5.91215 3.06643 5.99996 3.27843 5.99996 3.49947V5.16602C5.99996 5.38706 5.91215 5.59905 5.75585 5.75536C5.59954 5.91166 5.38755 5.99947 5.1665 5.99947H3.49996C3.27891 5.99947 3.06692 5.91166 2.91062 5.75536C2.75431 5.59905 2.6665 5.38706 2.6665 5.16602V3.49947C2.6665 3.27843 2.75431 3.06643 2.91062 2.91013C3.06692 2.75383 3.27891 2.66602 3.49996 2.66602Z" stroke="#8CA2A5" strokeLinejoin="round"/>
<path d="M18.8335 18H20.5C20.6094 18 20.7178 18.0216 20.8189 18.0634C20.9201 18.1053 21.0119 18.1667 21.0893 18.2441C21.1667 18.3215 21.2281 18.4134 21.27 18.5145C21.3119 18.6156 21.3335 18.724 21.3335 18.8335V20.5C21.3335 20.6095 21.3119 20.7178 21.27 20.819C21.2281 20.9201 21.1667 21.0119 21.0893 21.0893C21.0119 21.1667 20.9201 21.2281 20.8189 21.27C20.7178 21.3119 20.6094 21.3335 20.5 21.3335H18.8335C18.724 21.3335 18.6156 21.3119 18.5145 21.27C18.4134 21.2281 18.3215 21.1667 18.2441 21.0893C18.1667 21.0119 18.1053 20.9201 18.0634 20.819C18.0216 20.7178 18 20.6095 18 20.5V18.8335C18 18.724 18.0216 18.6156 18.0634 18.5145C18.1053 18.4134 18.1667 18.3215 18.2441 18.2441C18.3215 18.1667 18.4134 18.1053 18.5145 18.0634C18.6156 18.0216 18.724 18 18.8335 18Z" stroke="#8CA2A5" strokeLinejoin="round"/>
<path d="M3.49996 18H5.1665C5.27595 18 5.38433 18.0216 5.48545 18.0634C5.58657 18.1053 5.67845 18.1667 5.75585 18.2441C5.83324 18.3215 5.89463 18.4134 5.93652 18.5145C5.9784 18.6156 5.99996 18.724 5.99996 18.8335V20.5C5.99996 20.6095 5.9784 20.7178 5.93652 20.819C5.89463 20.9201 5.83324 21.0119 5.75585 21.0893C5.67845 21.1667 5.58657 21.2281 5.48545 21.27C5.38433 21.3119 5.27595 21.3335 5.1665 21.3335H3.49996C3.39051 21.3335 3.28213 21.3119 3.18101 21.27C3.07989 21.2281 2.98801 21.1667 2.91062 21.0893C2.83322 21.0119 2.77183 20.9201 2.72995 20.819C2.68806 20.7178 2.6665 20.6095 2.6665 20.5V18.8335C2.6665 18.724 2.68806 18.6156 2.72995 18.5145C2.77183 18.4134 2.83322 18.3215 2.91062 18.2441C2.98801 18.1667 3.07989 18.1053 3.18101 18.0634C3.28213 18.0216 3.39051 18 3.49996 18Z" stroke="#8CA2A5" strokeLinejoin="round"/>
<path d="M20 6V18" stroke="#8CA2A5" strokeLinecap="round"/>
<path d="M4 6V18" stroke="#8CA2A5" strokeLinecap="round"/>
</svg>
