<svg width="30" height="30" viewBox="0 0 30 30" fill="none" xmlns="http://www.w3.org/2000/svg">
<g clip-path="url(#clip0_120_943)">
<path d="M15 29.5312C23.0254 29.5312 29.5312 23.0254 29.5312 15C29.5312 6.97461 23.0254 0.46875 15 0.46875C6.97461 0.46875 0.46875 6.97461 0.46875 15C0.46875 23.0254 6.97461 29.5312 15 29.5312Z" fill="white" stroke="#13C2C2"/>
<path d="M19.0359 19.7969C19.5597 20.3253 20.1934 20.6427 20.8959 20.8416L21.1324 20.9029C21.6253 20.9933 21.8837 21.4453 21.9057 21.9074C21.9057 22.4498 21.5135 22.9119 20.9747 22.9913C20.4598 23.0586 19.921 22.7311 19.8092 22.2118C19.6525 21.4111 19.3153 20.711 18.7325 20.1244C18.6657 20.056 18.7106 19.9094 18.6876 19.7969L18.9501 19.7768C18.99 19.7768 19.0199 19.7818 19.0359 19.7969ZM19.9888 9.57083C21.0865 10.7441 21.6931 12.1324 21.7151 13.7466C21.4368 13.6197 21.1346 13.5546 20.829 13.5558H20.7841C20.277 13.5764 19.7939 13.7787 19.4219 14.1263C19.05 14.4738 18.8136 14.9438 18.7555 15.4513C18.733 15.6388 18.733 15.8283 18.7555 16.0159C18.3623 16.4106 17.8804 16.6587 17.2867 16.7602H17.2747C16.8957 16.8411 16.5473 17.0284 16.2697 17.3005C15.9922 17.5726 15.797 17.9183 15.7066 18.2975C15.6163 18.6767 15.6345 19.074 15.7593 19.4432C15.8841 19.8124 16.1102 20.1384 16.4115 20.3835C15.7381 20.5905 15.0407 20.7083 14.337 20.7341C13.4362 20.7775 12.5338 20.6898 11.6578 20.4739C11.5106 20.4553 11.3611 20.4708 11.2208 20.5191L9.19114 21.5237C8.9327 21.6593 8.69721 21.6814 8.47269 21.5016C8.26015 21.3428 8.2382 21.1058 8.26015 20.8235C8.34995 20.26 8.41781 19.6954 8.47369 19.1309C8.46456 18.9926 8.40896 18.8615 8.31603 18.7592C7.43094 17.8662 6.66859 16.8848 6.28741 15.6432C5.56896 13.1821 6.21956 11.0726 7.99173 9.31066C11.2317 6.11627 16.8925 6.26293 19.9888 9.57083ZM24.0251 17.7085C24.5859 17.7768 25 18.2278 25 18.7924C25 19.3348 24.6747 19.7738 24.1369 19.8762C23.4783 19.9968 22.8836 20.278 22.3886 20.71L22.209 20.8808C22.0963 20.9933 21.9286 21.0947 21.8159 20.926C21.771 20.8356 21.7939 20.6206 21.8608 20.5533C22.3888 20.0147 22.7375 19.3242 22.8586 18.5774C22.9085 18.3112 23.0564 18.0739 23.2727 17.9128C23.489 17.7517 23.7577 17.6787 24.0251 17.7085ZM19.8312 16.6929C19.8092 16.8054 19.8541 16.9742 19.7863 17.0425C19.2265 17.607 18.9231 18.2841 18.7665 19.0636C18.6537 19.6271 18.1378 19.9546 17.6 19.8642C17.0611 19.7738 16.658 19.2996 16.658 18.7693C16.658 18.2951 17.0063 17.8551 17.4762 17.7647C18.2349 17.6401 18.9365 17.2814 19.4839 16.7381C19.5508 16.6698 19.7194 16.6929 19.8312 16.6929ZM20.829 14.5703C21.3229 14.5703 21.7819 14.8978 21.8837 15.4172C22.0174 16.1957 22.3547 16.8737 22.9035 17.4373C22.9714 17.5056 22.9265 17.6974 22.9484 17.8099C22.8137 17.8099 22.6461 17.8551 22.5792 17.7878C22.0174 17.2002 21.3219 16.8958 20.5486 16.7271C20.2985 16.667 20.0792 16.5163 19.9325 16.3038C19.7858 16.0912 19.722 15.8317 19.7533 15.5749C19.8312 15.0113 20.2692 14.5934 20.829 14.5703Z" fill="#13C2C2"/>
</g>
<defs>
<clipPath id="clip0_120_943">
<rect width="30" height="30" fill="white"/>
</clipPath>
</defs>
</svg>
