<svg id="图层_1" data-name="图层 1" xmlns="http://www.w3.org/2000/svg" viewBox="0 0 144 144"><defs><style>.cls-1{fill:#999;}.cls-2{fill:#ccc;}.cls-3{fill:#666;}</style></defs><path class="cls-1" d="M93.08,100.73a2,2,0,0,1-1.42-.58l-8.48-8.49a2,2,0,0,1,0-2.83l5.65-5.65a2,2,0,0,1,2.83,0l8.49,8.48a2,2,0,0,1,.58,1.42,2,2,0,0,1-.58,1.41l-5.66,5.66A2,2,0,0,1,93.08,100.73ZM87.42,90.25l5.66,5.65,2.82-2.82-5.65-5.66Z"/><path class="cls-2" d="M6,136H2a2,2,0,0,1,0-4H6a2,2,0,0,1,0,4Z"/><path class="cls-2" d="M142,136H14a2,2,0,0,1,0-4H142a2,2,0,0,1,0,4Z"/><path class="cls-2" d="M102,144H22a2,2,0,0,1,0-4h80a2,2,0,0,1,0,4Z"/><path class="cls-2" d="M122,144H110a2,2,0,0,1,0-4h12a2,2,0,0,1,0,4Z"/><path class="cls-2" d="M51.88,116H51a1,1,0,0,1-1-1v-.88A2.07,2.07,0,0,0,48.34,112,2,2,0,0,0,46,114v1a1,1,0,0,1-1,1h-.88A2.07,2.07,0,0,0,42,117.66,2,2,0,0,0,44,120h1a1,1,0,0,1,1,1v.88A2.07,2.07,0,0,0,47.66,124,2,2,0,0,0,50,122v-1a1,1,0,0,1,1-1h1a2,2,0,0,0,2-2.34A2.07,2.07,0,0,0,51.88,116Z"/><path class="cls-2" d="M142.59,2.67H142a.67.67,0,0,1-.67-.67V1.41A1.39,1.39,0,0,0,140.23,0a1.34,1.34,0,0,0-1.56,1.31V2a.67.67,0,0,1-.67.67h-.59A1.39,1.39,0,0,0,136,3.77a1.34,1.34,0,0,0,1.31,1.56H138a.67.67,0,0,1,.67.67v.59A1.39,1.39,0,0,0,139.77,8a1.34,1.34,0,0,0,1.56-1.31V6a.67.67,0,0,1,.67-.67h.67A1.34,1.34,0,0,0,144,3.77,1.39,1.39,0,0,0,142.59,2.67Z"/><path class="cls-2" d="M14.59,11.67H14a.67.67,0,0,1-.67-.67v-.59A1.39,1.39,0,0,0,12.23,9a1.34,1.34,0,0,0-1.56,1.31V11a.67.67,0,0,1-.67.67H9.41A1.39,1.39,0,0,0,8,12.77a1.34,1.34,0,0,0,1.31,1.56H10a.67.67,0,0,1,.67.67v.59A1.39,1.39,0,0,0,11.77,17a1.34,1.34,0,0,0,1.56-1.31V15a.67.67,0,0,1,.67-.67h.67A1.34,1.34,0,0,0,16,12.77,1.39,1.39,0,0,0,14.59,11.67Z"/><path class="cls-2" d="M116.59,28.67H116a.67.67,0,0,1-.67-.67v-.59a1.39,1.39,0,0,0-1.1-1.39,1.34,1.34,0,0,0-1.56,1.31V28a.67.67,0,0,1-.67.67h-.59a1.39,1.39,0,0,0-1.39,1.1,1.34,1.34,0,0,0,1.31,1.56H112a.67.67,0,0,1,.67.67v.59a1.39,1.39,0,0,0,1.1,1.39,1.34,1.34,0,0,0,1.56-1.31V32a.67.67,0,0,1,.67-.67h.67A1.34,1.34,0,0,0,118,29.77,1.39,1.39,0,0,0,116.59,28.67Z"/><path class="cls-2" d="M134.59,48.67H134a.67.67,0,0,1-.67-.67v-.59a1.39,1.39,0,0,0-1.1-1.39,1.34,1.34,0,0,0-1.56,1.31V48a.67.67,0,0,1-.67.67h-.59a1.39,1.39,0,0,0-1.39,1.1,1.34,1.34,0,0,0,1.31,1.56H130a.67.67,0,0,1,.67.67v.59a1.39,1.39,0,0,0,1.1,1.39,1.34,1.34,0,0,0,1.56-1.31V52a.67.67,0,0,1,.67-.67h.67A1.34,1.34,0,0,0,136,49.77,1.39,1.39,0,0,0,134.59,48.67Z"/><path class="cls-2" d="M33.59,104.67H33a.67.67,0,0,1-.67-.67v-.59a1.39,1.39,0,0,0-1.1-1.39,1.34,1.34,0,0,0-1.56,1.31V104a.67.67,0,0,1-.67.67h-.59a1.39,1.39,0,0,0-1.39,1.1,1.34,1.34,0,0,0,1.31,1.56H29a.67.67,0,0,1,.67.67v.59a1.39,1.39,0,0,0,1.1,1.39,1.34,1.34,0,0,0,1.56-1.31V108a.67.67,0,0,1,.67-.67h.67A1.34,1.34,0,0,0,35,105.77,1.39,1.39,0,0,0,33.59,104.67Z"/><path class="cls-3" d="M84,48a12,12,0,0,1-8.49-20.49l7.07-7.07A2,2,0,0,1,84,19.89h0a2,2,0,0,1,1.41.59l7.07,7.07A12,12,0,0,1,84,48Zm0-23.32-5.66,5.66a8,8,0,1,0,11.31,0h0Z"/><path class="cls-3" d="M62,100A38,38,0,1,1,69.1,24.64a2,2,0,0,1-.75,3.93A34,34,0,1,0,93.91,50.33,2,2,0,0,1,97.67,49a38.13,38.13,0,0,1-8.84,39.87A37.73,37.73,0,0,1,62,100Z"/><path class="cls-1" d="M62,92A30,30,0,1,1,66.42,32.3a2,2,0,0,1-.59,4,26,26,0,0,0-22.25,44.1A26,26,0,0,0,86.72,54a2,2,0,1,1,3.81-1.22A30,30,0,0,1,62,92Z"/><path class="cls-3" d="M76,64a2,2,0,0,1-1.41-.58l-4-4a2,2,0,0,1,0-2.83l4-4a2,2,0,0,1,2.83,0,2,2,0,0,1,0,2.83L74.79,58l2.59,2.59a2,2,0,0,1,0,2.83A2,2,0,0,1,76,64ZM48,64a2,2,0,0,1-1.41-3.41L49.13,58l-2.58-2.58a2,2,0,0,1,2.83-2.83l4,4a2,2,0,0,1,0,2.83l-4,4A2,2,0,0,1,48,64Z"/><path class="cls-3" d="M110.05,120a10,10,0,0,1-7.07-2.92l-8.49-8.49a10,10,0,0,1,14.14-14.14l8.49,8.49A10,10,0,0,1,110.05,120Zm-8.49-24.47a6,6,0,0,0-4.24,10.23l8.48,8.49a6,6,0,0,0,8.49-8.49l-8.49-8.48A5.93,5.93,0,0,0,101.56,95.57Z"/><path class="cls-1" d="M86,34a2,2,0,0,1-1.41-.59l-2-2a2,2,0,0,1,2.82-2.82l2,2A2,2,0,0,1,86,34Z"/></svg>