<svg width="30" height="30" viewBox="0 0 30 30" fill="none" xmlns="http://www.w3.org/2000/svg">
<circle cx="15" cy="15" r="14.5" fill="white" stroke="#13C2C2"/>
<g clip-path="url(#clip0_62_2635)">
<path d="M22.755 10.4932C22.755 10.4932 22.6495 10.4662 22.6231 10.412L20.196 6.05414C20.196 6.05414 20.1168 6 20.0641 6H10.1181C10.1181 6 10.039 6 9.98619 6.05414L7.42714 10.5744L5.00001 14.9053C5.00001 14.9053 4.97362 15.0135 5.00001 15.0677L7.42714 19.3985L9.98619 23.9188C9.98619 23.9188 10.0653 24 10.1181 24H20.0377C20.0377 24 20.1432 23.9729 20.1696 23.9188L22.5967 19.588C22.5967 19.588 22.6759 19.5068 22.7286 19.5068H25.7626C25.7626 19.5068 25.9472 19.4256 25.9472 19.3173V10.6827C25.9472 10.6827 25.8681 10.4932 25.7626 10.4932H22.7023H22.755Z" fill="#13C2C2"/>
<path d="M8.00753 14.5264L5.5 16.0001L5.02637 15.0678C5.02637 15.0678 4.99999 14.9595 5.02637 14.9054L6.23994 12.7129L8.00753 14.5264Z" fill="#78E6DA"/>
<path d="M25.9737 17.206L24.1797 15.3383L25.9737 15.0676V17.206Z" fill="#78E6DA"/>
<path d="M24.1795 15.3384L25.9734 17.206V19.2903C25.9734 19.2903 25.8943 19.4797 25.7888 19.4797H23.7046L24.1531 15.3384H24.1795Z" fill="#78E6DA"/>
<path d="M21.1987 19.4797L20.46 17.6121L24.1798 15.3384L23.7049 19.4797H21.1987Z" fill="#78E6DA"/>
<path d="M25.9737 15.0677L24.1797 15.3384L25.9737 13.0918V15.0677Z" fill="#87E8DE"/>
<path d="M25.9734 10.6827V13.1188L24.1795 15.3654L22.8076 10.5203H25.7624C25.7624 10.5203 25.9471 10.5744 25.9734 10.6827Z" fill="#78E6DA"/>
<path d="M19.5366 18.9654L20.46 17.6121L21.1987 19.4797H19.8796L19.5366 18.9654Z" fill="#78E6DA"/>
<path d="M21.8315 10.4932H22.834L24.1795 15.3383L19.2197 13.1999L21.8315 10.4932Z" fill="#78E6DA"/>
<path d="M19 13L20 18.5L25 15L19 13Z" fill="#78E6DA"/>
<path d="M19.5366 18.9653L19.8796 19.4796H19.5366V18.9653Z" fill="#78E6DA"/>
<path d="M18.7451 10.7638L19.774 10.4932H21.8318L19.22 13.1999L18.7451 10.7638Z" fill="#78E6DA"/>
<path d="M19.2199 13.2L13 14.5L19.5365 18.9924L19.2199 13.2Z" fill="#78E6DA"/>
<path d="M19.2197 13.2L19.5363 18.9924L20.4597 17.612L19.2197 13.2Z" fill="#D0D0D0"/>
<path d="M18.7448 10.7639L13.2046 14.6075L19.2197 13.2L18.7448 10.7639Z" fill="#78E6DA"/>
<path d="M9.11536 19.4798L8.00732 14.5264L13.2046 14.6076L10.5928 19.4798H9.11536Z" fill="#78E6DA"/>
<path d="M10.5403 10.4932L8.00768 14.5262L7.37451 10.7368L7.45366 10.5744C7.45366 10.5744 7.5328 10.4932 7.58557 10.4932H10.514H10.5403Z" fill="#78E6DA"/>
<path d="M9.49976 19.5L7.58528 19.4798C7.58528 19.4798 7.47975 19.4527 7.45337 19.3985L5.26367 15.5549L8.00739 14.5264L9.49976 19.5Z" fill="#78E6DA"/>
<path d="M7.37417 10.7368L8.00733 14.5263L6.23975 12.7128L7.37417 10.7368Z" fill="#78E6DA"/>
<path d="M11.5693 10.4932L13.205 14.6075L18.7452 10.7638L17.0832 10.4932H15.9487H14.2075H11.5693Z" fill="#78E6DA"/>
<path d="M8.00732 14.5262L13.2046 14.6075L11.5689 10.4932H10.8566H10.54L8.00732 14.5262Z" fill="#78E6DA"/>
<path d="M19.5363 19.4796V18.9653L18.3228 19.4796H19.2989H19.5363Z" fill="#87E8DE"/>
<path d="M14.339 19.4796H15.9483H18.3227L19.5362 18.9653L13.2046 14.6074L14.339 19.4796Z" fill="#78E6DA"/>
<path d="M14.2071 19.4796H14.339L13.2046 14.6074L10.5928 19.4796H10.8566H14.2071Z" fill="#78E6DA"/>
<path d="M19.774 10.4932H19.2991H18.7715L18.7451 10.7638L19.774 10.4932Z" fill="#87E8DE"/>
<path d="M18.5868 10.4932H17.083L18.7451 10.7638L18.5868 10.4932Z" fill="#E3E3E3"/>
<path d="M18.7716 10.4932H18.5869L18.7452 10.7638L18.7716 10.4932Z" fill="#E2E2E2"/>
<path d="M14.2074 10.5744L11.7539 14.9322C11.7539 14.9322 11.7539 14.9864 11.7539 15.0134H10.0391L13.3896 9.03149C13.3896 9.03149 13.4159 9.05856 13.4423 9.08563L14.2074 10.439C14.2074 10.439 14.2338 10.5473 14.2074 10.5744Z" fill="white"/>
<path d="M14.2074 19.561L13.4423 20.9144C13.4423 20.9144 13.416 20.9415 13.3896 20.9685L10.0127 14.9866H11.7275V15.0407L14.181 19.3986C14.181 19.3986 14.2602 19.5069 14.2338 19.561H14.2074Z" fill="white"/>
<path d="M13.3895 9.03149L11.6747 12.2037L11 13.4999L10.039 14.9864L9.19479 16.4751L8.37695 15.0676V15.0134C8.37695 15.0134 8.37695 14.9593 8.37695 14.9322L9.19479 13.4977L11.6747 9.1127C11.6747 9.1127 11.7538 9.03149 11.8066 9.03149H13.3368C13.3368 9.03149 13.3895 9.03149 13.4159 9.03149H13.3895Z" fill="white"/>
<path d="M13.3895 20.9685C13.3895 20.9685 13.3368 20.9685 13.3104 20.9685H11.8066C11.8066 20.9685 11.7011 20.9415 11.6747 20.8873L9.40588 16.8813L9.19482 16.4753L10.0127 14.9866L13.3895 20.9685Z" fill="white"/>
<path d="M20.1434 14.9866L16.7929 20.9685C16.7929 20.9685 16.7666 20.9415 16.7402 20.9144L15.9751 19.561C15.9751 19.561 15.9751 19.4527 15.9751 19.4257L18.4286 15.0678C18.4286 15.0678 18.4286 15.0136 18.4286 14.9866H20.1698H20.1434Z" fill="white"/>
<path d="M21.8051 14.9865C21.8051 14.9865 21.8051 15.0406 21.8051 15.0677L18.5073 20.9143C18.5073 20.9143 18.4282 20.9955 18.3754 20.9955H16.8453C16.8453 20.9955 16.7925 20.9955 16.7661 20.9955L20.1166 15.0135L20.9998 13.5L21.7523 14.9323C21.7523 14.9323 21.8051 15.0406 21.8051 15.0677V14.9865Z" fill="white"/>
<path d="M20.1166 15.025L18.4281 14.9865C18.4281 14.9865 18.4281 14.9323 18.4281 14.9053L15.9482 10.5744C15.9482 10.5744 15.9219 10.4662 15.9482 10.412L16.7133 9.05865C16.7133 9.05865 16.7397 9.03158 16.7661 9.00452L20.1166 14.9594V15.025Z" fill="white"/>
<path d="M20.9872 13.4977L20.1166 15.025L16.7661 9.00452C16.7661 9.00452 16.9734 9 16.9998 9L18.4018 9.03158C18.4018 9.03158 18.5073 9.03158 18.5337 9.11278L21.0136 13.5248L20.9872 13.4977Z" fill="white"/>
</g>
<defs>
<clipPath id="clip0_62_2635">
<rect width="21" height="18" fill="white" transform="translate(5 6)"/>
</clipPath>
</defs>
</svg>
