<svg viewBox="-75.59005828351432 -25.3 156.47005828351433 54.95" xmlns="http://www.w3.org/2000/svg" xmlns:xlink="http://www.w3.org/1999/xlink" version="1.1" style="width: 340px; height: 119.403px; max-height: 100%;">
  <g transform="translate(-10 -0.85) scale(0.6944444444444444)" fill="#232323">
    <g id="line1">
      <path d="M28.188-17.676C29.172-19.236 29.664-21.048 29.664-23.112C29.664-26.472 28.404-29.172 25.884-31.212C23.364-33.252 19.656-34.272 14.760-34.272C12.744-34.272 10.620-34.104 8.388-33.768C6.156-33.432 4.344-33.048 2.952-32.616L2.664-31.680L3.528-31.176C4.488-30.600 5.100-29.868 5.364-28.980C5.628-28.092 5.760-26.808 5.760-25.128L5.760-5.976C5.760-4.824 5.664-3.984 5.472-3.456C5.280-2.928 4.932-2.520 4.428-2.232C3.924-1.944 3.048-1.632 1.800-1.296L2.304 0L14.832 0L15.408-0.720L14.832-1.584C14.016-2.688 13.452-3.792 13.140-4.896C12.828-6.000 12.672-7.512 12.672-9.432L12.672-29.520C12.672-30.288 12.924-30.984 13.428-31.608C13.932-32.232 14.736-32.544 15.840-32.544C17.904-32.544 19.524-31.644 20.700-29.844C21.876-28.044 22.464-25.824 22.464-23.184C22.464-20.832 21.936-18.948 20.880-17.532C19.824-16.116 18.360-15.264 16.488-14.976L15.264-14.904L14.040-14.976L13.896-14.328C15.576-13.368 17.352-12.888 19.224-12.888C21.000-12.888 22.692-13.296 24.300-14.112C25.908-14.928 27.204-16.116 28.188-17.676Z"></path><path d="M59.342-3.276C58.766-4.068 58.238-5.136 57.758-6.480L48.326-33.624L38.534-33.624L38.030-32.328L38.822-32.112C40.358-31.680 41.126-30.936 41.126-29.880C41.126-29.400 40.958-28.560 40.622-27.360L33.278-6.192C32.750-4.656 32.198-3.588 31.622-2.988C31.046-2.388 30.182-1.920 29.030-1.584L27.950-1.296L28.454 0L36.374 0L37.022-0.720L36.518-1.584C36.134-2.448 35.942-3.408 35.942-4.464C35.942-5.568 36.302-7.200 37.022-9.360L37.598-11.160L48.758-11.160L50.198-6.912C50.726-5.328 50.990-4.344 50.990-3.960C50.990-3.336 50.834-2.844 50.522-2.484C50.210-2.124 49.694-1.824 48.974-1.584L47.894-1.296L48.326 0L61.358 0L62.006-0.720C60.806-1.632 59.918-2.484 59.342-3.276ZM48.038-13.176L38.318-13.176L43.142-27.792Z"></path><path d="M91.685-14.400L91.109-15.192L79.517-15.192L79.085-13.824C80.285-13.488 81.149-13.164 81.677-12.852C82.205-12.540 82.565-12.132 82.757-11.628C82.949-11.124 83.045-10.320 83.045-9.216L83.045-2.736C81.701-2.208 80.309-1.944 78.869-1.944C76.949-1.944 75.245-2.568 73.757-3.816C72.269-5.064 71.105-6.804 70.265-9.036C69.425-11.268 69.005-13.800 69.005-16.632C69.005-21.432 69.809-25.284 71.417-28.188C73.025-31.092 75.173-32.544 77.861-32.544C79.301-32.544 80.501-32.052 81.461-31.068C82.421-30.084 82.901-28.776 82.901-27.144C82.901-25.656 82.709-24.444 82.325-23.508C81.941-22.572 81.413-21.696 80.741-20.880C83.285-20.880 85.397-21.456 87.077-22.608C88.757-23.760 89.597-25.344 89.597-27.360C89.597-29.424 88.553-31.092 86.465-32.364C84.377-33.636 81.677-34.272 78.365-34.272C73.181-34.272 69.065-32.688 66.017-29.520C62.969-26.352 61.445-22.056 61.445-16.632C61.445-11.352 62.849-7.152 65.657-4.032C68.465-0.912 72.269 0.648 77.069 0.648C79.997 0.648 82.637-0.120 84.989-1.656L88.733 0.288L89.453 0L89.453-6.192C89.453-8.256 89.561-9.792 89.777-10.800C89.993-11.808 90.437-12.744 91.109-13.608Z"></path><path d="M96.523-28.728C96.811-27.624 96.955-26.112 96.955-24.192L96.955-5.976C96.955-4.872 96.859-4.056 96.667-3.528C96.475-3.000 96.115-2.580 95.587-2.268C95.059-1.956 94.195-1.632 92.995-1.296L93.499 0L111.571 0C113.107 0 114.307 0.084 115.171 0.252C116.035 0.420 116.803 0.744 117.475 1.224L118.267 0.576L118.267-8.064L116.755-8.568C115.987-6.072 115.183-4.320 114.343-3.312C113.503-2.304 112.363-1.800 110.923-1.800L107.395-1.800C105.907-1.800 104.947-2.028 104.515-2.484C104.083-2.940 103.867-3.888 103.867-5.328L103.867-16.200L107.467-16.200C109.387-16.200 110.779-16.008 111.643-15.624C112.507-15.240 113.035-14.544 113.227-13.536L113.515-11.952L115.099-12.528L115.099-20.592L114.163-21.168L113.803-20.160C113.467-19.296 112.951-18.720 112.255-18.432C111.559-18.144 110.491-18.000 109.051-18.000L103.867-18.000L103.867-28.224C103.867-29.712 104.059-30.684 104.443-31.140C104.827-31.596 105.643-31.824 106.891-31.824L110.131-31.824C111.667-31.824 112.855-31.344 113.695-30.384C114.535-29.424 115.387-27.648 116.251-25.056L117.691-25.560L117.691-34.560L116.971-35.208L116.107-34.560C115.195-33.936 113.419-33.624 110.779-33.624L94.867-33.624L94.291-32.832L94.867-32.040C95.683-30.936 96.235-29.832 96.523-28.728Z"></path>
    </g>
  </g>
  <g transform="translate(-10 28.8) scale(0.6944444444444443)" fill="#232323">
    <g id="line2">
      <path d="M28.188-17.676C29.172-19.236 29.664-21.048 29.664-23.112C29.664-26.472 28.404-29.172 25.884-31.212C23.364-33.252 19.656-34.272 14.760-34.272C12.744-34.272 10.620-34.104 8.388-33.768C6.156-33.432 4.344-33.048 2.952-32.616L2.664-31.680L3.528-31.176C4.488-30.600 5.100-29.868 5.364-28.980C5.628-28.092 5.760-26.808 5.760-25.128L5.760-5.976C5.760-4.824 5.664-3.984 5.472-3.456C5.280-2.928 4.932-2.520 4.428-2.232C3.924-1.944 3.048-1.632 1.800-1.296L2.304 0L14.832 0L15.408-0.720L14.832-1.584C14.016-2.688 13.452-3.792 13.140-4.896C12.828-6.000 12.672-7.512 12.672-9.432L12.672-29.520C12.672-30.288 12.924-30.984 13.428-31.608C13.932-32.232 14.736-32.544 15.840-32.544C17.904-32.544 19.524-31.644 20.700-29.844C21.876-28.044 22.464-25.824 22.464-23.184C22.464-20.832 21.936-18.948 20.880-17.532C19.824-16.116 18.360-15.264 16.488-14.976L15.264-14.904L14.040-14.976L13.896-14.328C15.576-13.368 17.352-12.888 19.224-12.888C21.000-12.888 22.692-13.296 24.300-14.112C25.908-14.928 27.204-16.116 28.188-17.676Z"></path><path d="M33.710-28.260C33.854-27.372 33.926-26.064 33.926-24.336L33.926-5.976C33.926-4.872 33.830-4.056 33.638-3.528C33.446-3.000 33.086-2.580 32.558-2.268C32.030-1.956 31.166-1.632 29.966-1.296L30.398 0L48.110 0C49.646 0 50.798 0.084 51.566 0.252C52.334 0.420 53.030 0.744 53.654 1.224L54.374 0.576L54.374-8.064L52.934-8.568C52.070-5.928 51.230-4.140 50.414-3.204C49.598-2.268 48.494-1.800 47.102-1.800L44.366-1.800C42.878-1.800 41.918-2.040 41.486-2.520C41.054-3.000 40.838-4.008 40.838-5.544L40.838-25.632C40.838-27.168 40.922-28.296 41.090-29.016C41.258-29.736 41.582-30.336 42.062-30.816C42.542-31.296 43.334-31.848 44.438-32.472L43.934-33.624L31.406-33.624L30.758-32.688C31.718-31.872 32.414-31.152 32.846-30.528C33.278-29.904 33.566-29.148 33.710-28.260Z"></path><path d="M80.237-2.556C82.349-4.692 83.405-7.824 83.405-11.952L83.405-24.192C83.357-26.064 83.489-27.564 83.801-28.692C84.113-29.820 84.677-30.936 85.493-32.040L86.141-32.832L85.493-33.624L77.141-33.624L76.637-32.328C78.461-31.800 79.649-31.260 80.201-30.708C80.753-30.156 81.029-29.136 81.029-27.648L81.029-11.304C81.029-8.184 80.285-5.772 78.797-4.068C77.309-2.364 75.197-1.512 72.461-1.512C70.061-1.512 68.237-2.340 66.989-3.996C65.741-5.652 65.117-8.088 65.117-11.304L65.117-25.920C65.117-27.360 65.201-28.440 65.369-29.160C65.537-29.880 65.861-30.468 66.341-30.924C66.821-31.380 67.613-31.896 68.717-32.472L68.213-33.624L55.613-33.624L55.109-32.688C56.405-31.584 57.245-30.552 57.629-29.592C58.013-28.632 58.205-27.048 58.205-24.840L58.205-11.952C58.205-7.968 59.333-4.872 61.589-2.664C63.845-0.456 66.965 0.648 70.949 0.648C75.029 0.648 78.125-0.420 80.237-2.556Z"></path><path d="M117.619-14.400L117.043-15.192L105.451-15.192L105.019-13.824C106.219-13.488 107.083-13.164 107.611-12.852C108.139-12.540 108.499-12.132 108.691-11.628C108.883-11.124 108.979-10.320 108.979-9.216L108.979-2.736C107.635-2.208 106.243-1.944 104.803-1.944C102.883-1.944 101.179-2.568 99.691-3.816C98.203-5.064 97.039-6.804 96.199-9.036C95.359-11.268 94.939-13.800 94.939-16.632C94.939-21.432 95.743-25.284 97.351-28.188C98.959-31.092 101.107-32.544 103.795-32.544C105.235-32.544 106.435-32.052 107.395-31.068C108.355-30.084 108.835-28.776 108.835-27.144C108.835-25.656 108.643-24.444 108.259-23.508C107.875-22.572 107.347-21.696 106.675-20.880C109.219-20.880 111.331-21.456 113.011-22.608C114.691-23.760 115.531-25.344 115.531-27.360C115.531-29.424 114.487-31.092 112.399-32.364C110.311-33.636 107.611-34.272 104.299-34.272C99.115-34.272 94.999-32.688 91.951-29.520C88.903-26.352 87.379-22.056 87.379-16.632C87.379-11.352 88.783-7.152 91.591-4.032C94.399-0.912 98.203 0.648 103.003 0.648C105.931 0.648 108.571-0.120 110.923-1.656L114.667 0.288L115.387 0L115.387-6.192C115.387-8.256 115.495-9.792 115.711-10.800C115.927-11.808 116.371-12.744 117.043-13.608Z"></path>
    </g>
  </g>
  <g transform="translate(-75.88254414390825 -25.922318635166082) scale(0.5849717207878464)" id="logomark">
    <g fill="#232323">
      <path d="M48.5 78c8.4 0 15.3-6.8 15.3-15.3V48.4H32.3v14.3c0 8.4 6.8 15.3 15.3 15.3h.9zM38 63.2c0-5.5 4.5-10 10-10s10 4.5 10 10-4.5 10-10 10-10-4.5-10-10z"></path><path d="M95.5 46.7c-1-24.6-21-44.7-45.7-45.6-13-.5-25.4 4.2-34.7 13.2C5.7 23.3.5 35.5.5 48.5c0 9.9 3 19.5 8.8 27.5l3.2-2.3c-5.3-7.4-8.1-16.1-8.1-25.2 0-11.9 4.7-23.1 13.3-31.4 8.7-8.2 20-12.5 32-12.1 22.6.9 41 19.2 41.8 41.8.8 20.5-13.1 39-32.9 43.9-2.1.5-4.2.1-5.9-1.3-1.2-.9-2.1-2.2-2.5-3.7 12-.9 21.4-10.9 21.4-23.1V40.5H64V17.7c0-2.5-2.1-4.6-4.6-4.6h-.2c-2.5 0-4.6 2.1-4.6 4.6v22.8H41.3V17.7c0-2.5-2.1-4.6-4.6-4.6h-.2c-2.5 0-4.6 2.1-4.6 4.6v22.8h-7.6v22.3c0 12.3 9.7 22.5 21.9 23.1.5 2.7 1.9 5.1 4.1 6.8 1.9 1.5 4.3 2.3 6.7 2.3.9 0 1.8-.1 2.6-.3 21.6-5.5 36.7-25.6 35.9-48zm-67.2 16V44.4h39.4v18.3c0 10.6-8.6 19.2-19.2 19.2h-.9c-10.7.1-19.3-8.6-19.3-19.2z"></path>
    </g>
  </g>
</svg>