<?xml version="1.0" encoding="UTF-8"?>
<svg id="_图层_1" data-name="图层 1" xmlns="http://www.w3.org/2000/svg" viewBox="0 0 1170 290.92">
  <defs>
    <style>
      .cls-1,
      .cls-2 {
        fill: #27b7b7;
      }

      .cls-2 {
        font-family: OpenSans-Bold, 'Open Sans';
        font-size: 186.87px;
        font-weight: 700;
        isolation: isolate;
      }
    </style>
  </defs>
  <path class="cls-1"
    d="m105.34,61.23h31.14l-3.51,15.79c5.03-6.14,10.45-10.73,16.26-13.77,5.81-3.04,12.01-4.56,18.6-4.56,10.42,0,18.64,3.43,24.66,10.29,6.02,6.86,9.03,16.21,9.03,28.06,0,8.08-1.1,16.2-3.29,24.34-2.2,8.15-5.28,15.54-9.25,22.18-4.89,8.08-11.05,14.38-18.5,18.89-7.44,4.51-15.31,6.77-23.6,6.77s-14.46-1.94-19.56-5.83c-5.1-3.88-8.36-9.34-9.78-16.35l-10.66,48.5c4.66,1.27,9.47,2.23,14.42,2.84,55.1,6.78,105.32-31.96,112.17-86.53C240.34,57.29,201.23,7.55,146.12.77c-22.93-2.82-45,2.26-63.47,13.07l-37.44-6.4L0,212.77l53.83,78.15,24.41-108.3m63.03-35.76c7.87,0,14.65-4.45,20.35-13.35,5.7-8.9,8.56-19.64,8.56-32.24,0-6.33-1.47-11.25-4.41-14.76-2.94-3.51-7.03-5.26-12.28-5.26-8.08,0-15.08,4.34-20.99,13.02-5.92,8.68-8.88,19.22-8.88,31.63,0,6.52,1.59,11.64,4.78,15.37,3.19,3.73,7.48,5.59,12.86,5.59Z" />
  <text class="cls-2" transform="translate(284.06 196.24)">
    <tspan x="0" y="0">PagePlug</tspan>
  </text>
</svg>