<svg viewBox="0 0 50.58240062194206 50" xmlns="http://www.w3.org/2000/svg" xmlns:xlink="http://www.w3.org/1999/xlink" version="1.1" style="width: 200px; height: 200px; max-height: 100%;">
  <g transform="translate(-0.2661381805222231 -0.5662589946916122) scale(0.5322763610444462)" id="lockup4-icon">
    <g fill="#2CBBA6">
      <path d="M48.5 78c8.4 0 15.3-6.8 15.3-15.3V48.4H32.3v14.3c0 8.4 6.8 15.3 15.3 15.3h.9zM38 63.2c0-5.5 4.5-10 10-10s10 4.5 10 10-4.5 10-10 10-10-4.5-10-10z"></path>
      <path d="M95.5 46.7c-1-24.6-21-44.7-45.7-45.6-13-.5-25.4 4.2-34.7 13.2C5.7 23.3.5 35.5.5 48.5c0 9.9 3 19.5 8.8 27.5l3.2-2.3c-5.3-7.4-8.1-16.1-8.1-25.2 0-11.9 4.7-23.1 13.3-31.4 8.7-8.2 20-12.5 32-12.1 22.6.9 41 19.2 41.8 41.8.8 20.5-13.1 39-32.9 43.9-2.1.5-4.2.1-5.9-1.3-1.2-.9-2.1-2.2-2.5-3.7 12-.9 21.4-10.9 21.4-23.1V40.5H64V17.7c0-2.5-2.1-4.6-4.6-4.6h-.2c-2.5 0-4.6 2.1-4.6 4.6v22.8H41.3V17.7c0-2.5-2.1-4.6-4.6-4.6h-.2c-2.5 0-4.6 2.1-4.6 4.6v22.8h-7.6v22.3c0 12.3 9.7 22.5 21.9 23.1.5 2.7 1.9 5.1 4.1 6.8 1.9 1.5 4.3 2.3 6.7 2.3.9 0 1.8-.1 2.6-.3 21.6-5.5 36.7-25.6 35.9-48zm-67.2 16V44.4h39.4v18.3c0 10.6-8.6 19.2-19.2 19.2h-.9c-10.7.1-19.3-8.6-19.3-19.2z"></path>
    </g>
  </g>
</svg>