<svg width="548" height="518" viewBox="0 0 548 518" fill="none" xmlns="http://www.w3.org/2000/svg">
<path d="M271.357 420.385C406.382 420.385 515.841 408.001 515.841 392.724C515.841 377.447 406.382 365.062 271.357 365.062C136.332 365.062 26.8721 377.447 26.8721 392.724C26.8721 408.001 136.332 420.385 271.357 420.385Z" fill="url(#paint0_linear_15598_12269)"/>
<path d="M147.87 69.419C147.87 70.5068 147.399 71.5118 146.632 72.2266C145.876 72.9518 144.823 73.3973 143.662 73.3973H53.6691C51.3565 73.3973 49.4604 71.605 49.4604 69.419C49.4604 68.3312 49.9317 67.3263 50.6989 66.6115C51.4552 65.8863 52.5073 65.4408 53.6691 65.4408H57.9216C59.5985 61.7526 63.4783 59.173 67.9938 59.173C71.0297 59.173 73.7807 60.3437 75.7754 62.2292C78.4277 57.9816 83.3159 55.1222 88.9164 55.1222C90.4508 55.1222 91.9414 55.3398 93.3333 55.7438C96.2596 50.5431 102.047 47 108.721 47C116.733 47 123.473 52.1178 125.512 59.0694C126.991 58.3753 128.657 57.9712 130.422 57.9712C135.42 57.9712 139.628 61.1207 140.955 65.4408H143.662C145.974 65.4408 147.87 67.2331 147.87 69.419Z" fill="#B5F5EC"/>
<path d="M471.585 71.3136C471.585 72.4014 471.113 73.4063 470.346 74.1211C469.59 74.8463 468.538 75.2918 467.376 75.2918H377.383C375.071 75.2918 373.175 73.4995 373.175 71.3136C373.175 70.2258 373.646 69.2209 374.413 68.506C375.17 67.7808 376.222 67.3353 377.383 67.3353H381.636C383.313 63.6472 387.193 61.0675 391.708 61.0675C394.744 61.0675 397.495 62.2382 399.49 64.1237C402.142 59.8761 407.03 57.0168 412.631 57.0168C414.165 57.0168 415.656 57.2343 417.048 57.6384C419.974 52.4377 425.761 48.8945 432.436 48.8945C440.447 48.8945 447.188 54.0124 449.226 60.9639C450.706 60.2698 452.372 59.8658 454.136 59.8658C459.134 59.8658 463.343 63.0152 464.669 67.3353H467.376C469.689 67.3353 471.585 69.1276 471.585 71.3136Z" fill="#B5F5EC"/>
<path d="M325.061 97.9503C325.061 99.0381 324.589 100.043 323.822 100.758C323.066 101.483 322.014 101.929 320.852 101.929H230.86C228.547 101.929 226.651 100.136 226.651 97.9503C226.651 96.8625 227.122 95.8576 227.889 95.1427C228.646 94.4175 229.698 93.9721 230.86 93.9721H235.112C236.789 90.2839 240.669 87.7043 245.184 87.7043C248.22 87.7043 250.971 88.8749 252.966 90.7604C255.618 86.5128 260.506 83.6535 266.107 83.6535C267.641 83.6535 269.132 83.8711 270.524 84.2751C273.45 79.0744 279.237 75.5312 285.912 75.5312C293.923 75.5312 300.664 80.6491 302.702 87.6007C304.182 86.9065 305.848 86.5025 307.612 86.5025C312.61 86.5025 316.819 89.6519 318.145 93.9721H320.852C323.165 93.9721 325.061 95.7643 325.061 97.9503Z" fill="#B5F5EC"/>
<path d="M439.231 255.442C444.393 246.719 454.268 228.413 458.51 209.516C464.856 181.275 478.983 180.021 484.145 188.112C498.327 210.324 459.935 248.387 447.725 259.627L439.22 255.452L439.231 255.442Z" fill="#A3F6A3"/>
<path d="M442.464 257.026C451.923 245.63 459.091 233.126 463.738 223.895C469.908 211.639 473.087 202.377 473.119 202.274C473.229 201.942 473.613 201.756 473.963 201.87C474.314 201.973 474.511 202.336 474.402 202.667C474.369 202.76 471.18 212.095 464.965 224.423C460.307 233.664 453.139 246.179 443.681 257.627L442.475 257.037L442.464 257.026Z" fill="#109E10"/>
<path d="M100.633 338.695C95.898 329.765 86.9217 311.055 83.5899 291.982C78.6141 263.492 64.5633 261.638 59.0066 269.491C43.7722 291.06 80.2909 330.749 91.9305 342.498L100.622 338.685L100.633 338.695Z" fill="#109E10"/>
<path d="M97.3228 340.135C88.4343 328.335 81.8692 315.54 77.6715 306.123C72.1039 293.618 69.3748 284.222 69.3529 284.129C69.2543 283.787 68.8926 283.59 68.5309 283.683C68.1692 283.777 67.961 284.118 68.0596 284.46C68.0815 284.554 70.8325 294.023 76.4331 306.6C80.6307 316.038 87.1958 328.843 96.0953 340.684L97.3338 340.145L97.3228 340.135Z" fill="#36CFC9"/>
<path d="M112.196 364.66C101.97 354.921 79.6443 332.088 65.5717 306.178C45.3834 268.985 25.1403 272.311 21.1618 285.458C10.8923 319.459 71.4024 356.424 96.4899 370.068L112.185 364.66H112.196Z" fill="#F6CDA3"/>
<g opacity="0.65">
<path d="M106.672 366.567C89.0591 354.084 74.1644 339.3 64.0374 328.153C50.5018 313.245 42.3476 301.424 42.2708 301.31C41.9749 300.885 41.3831 300.761 40.9337 301.04C40.4844 301.31 40.3528 301.88 40.6488 302.304C40.7255 302.418 48.9345 314.322 62.5468 329.323C72.5424 340.336 87.174 354.871 104.502 367.313L106.672 366.567Z" fill="#006D75"/>
</g>
<path d="M431.976 273.158C442.662 263.865 466.061 242.027 481.372 216.748C503.336 180.457 523.393 184.653 526.736 197.965C535.361 232.381 473.13 266.694 447.407 279.24L431.987 273.158H431.976Z" fill="#F6CDA3"/>
<path opacity="0.9" d="M437.401 275.304C455.605 263.587 471.191 249.466 481.844 238.774C496.081 224.467 504.794 213.009 504.882 212.895C505.188 212.481 505.802 212.388 506.241 212.688C506.679 212.978 506.778 213.558 506.46 213.962C506.372 214.076 497.593 225.607 483.279 240.007C472.758 250.585 457.447 264.467 439.538 276.143L437.401 275.304Z" fill="#A3F6A3"/>
<path d="M124.657 216.656C114.081 210.699 90.6155 196.402 73.2548 177.92C48.3427 151.398 32.4507 158.174 32.1329 169.777C31.2999 199.769 89.3003 218.044 112.974 224.239L124.657 216.656Z" fill="#FAC7C7"/>
<path d="M120.536 219.329C103.263 212.595 87.722 203.426 76.9045 196.288C62.4482 186.747 53.0994 178.666 53.0117 178.583C52.6829 178.293 52.1568 178.314 51.8499 178.635C51.543 178.946 51.565 179.443 51.8938 179.733C51.9814 179.816 61.3961 187.948 75.94 197.552C86.626 204.607 101.893 213.621 118.914 220.375L120.536 219.329Z" fill="#109E10"/>
<path d="M181.66 101.971C183.414 86.4204 182.044 71.388 173.857 75.0969C165.658 78.8058 168.53 104.633 179.676 121.665L182 128.316C174.109 115.77 158.359 105.141 151.904 109.109C145.481 113.056 156.638 119.231 167.829 123.271C176.344 126.337 181.178 130.202 183.425 132.377L194.407 163.789C181.846 143.949 156.978 127.197 146.752 133.486C136.56 139.754 154.271 149.554 172.026 155.957C185.441 160.795 193.102 166.866 196.697 170.336L198.889 176.604C200.095 176.418 201.3 176.221 202.506 176.014L189.442 138.645C190.318 135.434 192.061 131.041 195.514 125.933C201.958 116.392 207.032 105.151 199.382 105.597C192.752 105.98 187.414 118.982 187.074 131.859L182.559 118.93C181.879 114.703 180.904 108.674 181.66 101.971Z" fill="#A3F6A3"/>
<path d="M499.884 273.707C504.323 258.644 511.468 245.144 517.628 251.454C523.798 257.763 511.041 280.762 494.031 292.697L489.274 298.063C501.506 289.154 520.291 284.771 524.752 290.718C529.18 296.623 516.39 298.478 504.421 298.322C495.302 298.208 489.307 300.104 486.37 301.347L463.902 326.709C483.323 312.661 512.981 305.771 520.028 315.178C527.054 324.554 506.767 327.486 487.762 327.237C473.404 327.051 463.913 330.014 459.222 331.992L454.74 337.048C453.687 336.447 452.646 335.846 451.605 335.235L478.336 305.067C478.775 301.783 478.873 297.09 477.657 291.143C475.399 280.027 475.07 267.802 482.008 270.889C488.025 273.562 487.904 287.507 483.192 299.597L492.442 289.164C494.722 285.476 497.977 280.213 499.895 273.707H499.884Z" fill="#FAC7C7"/>
<path d="M476.396 157.789C473.459 157.789 471.069 155.53 471.069 152.754C471.069 149.977 473.459 147.719 476.396 147.719C479.333 147.719 481.722 149.977 481.722 152.754C481.722 155.53 479.333 157.789 476.396 157.789ZM476.396 149.293C474.379 149.293 472.735 150.847 472.735 152.754C472.735 154.66 474.379 156.214 476.396 156.214C478.413 156.214 480.057 154.66 480.057 152.754C480.057 150.847 478.413 149.293 476.396 149.293Z" fill="#13C2C2"/>
<path d="M503.467 162.918C500.53 162.918 498.141 160.659 498.141 157.883C498.141 155.106 500.53 152.848 503.467 152.848C506.404 152.848 508.794 155.106 508.794 157.883C508.794 160.659 506.404 162.918 503.467 162.918ZM503.467 154.422C501.451 154.422 499.807 155.976 499.807 157.883C499.807 159.789 501.451 161.343 503.467 161.343C505.484 161.343 507.128 159.789 507.128 157.883C507.128 155.976 505.484 154.422 503.467 154.422Z" fill="#13C2C2"/>
<path d="M516.29 173.192C515.83 173.192 515.458 172.84 515.458 172.405V168.924C515.458 168.489 515.83 168.137 516.29 168.137C516.751 168.137 517.123 168.489 517.123 168.924V172.405C517.123 172.84 516.751 173.192 516.29 173.192Z" fill="#13C2C2"/>
<path d="M516.29 179.282C515.83 179.282 515.458 178.93 515.458 178.495V175.014C515.458 174.579 515.83 174.227 516.29 174.227C516.751 174.227 517.123 174.579 517.123 175.014V178.495C517.123 178.93 516.751 179.282 516.29 179.282Z" fill="#13C2C2"/>
<path d="M521.463 174.497H518.153C517.693 174.497 517.32 174.144 517.32 173.709C517.32 173.274 517.693 172.922 518.153 172.922H521.463C521.924 172.922 522.296 173.274 522.296 173.709C522.296 174.144 521.924 174.497 521.463 174.497Z" fill="#13C2C2"/>
<path d="M514.427 174.497H511.117C510.657 174.497 510.284 174.144 510.284 173.709C510.284 173.274 510.657 172.922 511.117 172.922H514.427C514.887 172.922 515.26 173.274 515.26 173.709C515.26 174.144 514.887 174.497 514.427 174.497Z" fill="#13C2C2"/>
<path d="M487.838 167.517C487.378 167.517 487.005 167.164 487.005 166.729V163.248C487.005 162.813 487.378 162.461 487.838 162.461C488.299 162.461 488.671 162.813 488.671 163.248V166.729C488.671 167.164 488.299 167.517 487.838 167.517Z" fill="#13C2C2"/>
<path d="M487.838 173.606C487.378 173.606 487.005 173.254 487.005 172.819V169.338C487.005 168.903 487.378 168.551 487.838 168.551C488.299 168.551 488.671 168.903 488.671 169.338V172.819C488.671 173.254 488.299 173.606 487.838 173.606Z" fill="#13C2C2"/>
<path d="M493.012 168.821H489.702C489.241 168.821 488.869 168.469 488.869 168.033C488.869 167.598 489.241 167.246 489.702 167.246H493.012C493.472 167.246 493.844 167.598 493.844 168.033C493.844 168.469 493.472 168.821 493.012 168.821Z" fill="#13C2C2"/>
<path d="M485.986 168.821H482.676C482.216 168.821 481.843 168.469 481.843 168.033C481.843 167.598 482.216 167.246 482.676 167.246H485.986C486.446 167.246 486.819 167.598 486.819 168.033C486.819 168.469 486.446 168.821 485.986 168.821Z" fill="#13C2C2"/>
<path d="M42.5555 252.965C42.5555 255.741 40.1662 258 37.2289 258C34.2916 258 31.9023 255.741 31.9023 252.965C31.9023 250.188 34.2916 247.93 37.2289 247.93C40.1662 247.93 42.5555 250.188 42.5555 252.965ZM33.5683 252.965C33.5683 254.871 35.2123 256.425 37.2289 256.425C39.2455 256.425 40.8895 254.871 40.8895 252.965C40.8895 251.058 39.2455 249.504 37.2289 249.504C35.2123 249.504 33.5683 251.058 33.5683 252.965Z" fill="#13C2C2"/>
<path d="M47.9808 227.375C47.9808 230.151 45.5915 232.41 42.6542 232.41C39.7169 232.41 37.3276 230.151 37.3276 227.375C37.3276 224.598 39.7169 222.34 42.6542 222.34C45.5915 222.34 47.9808 224.598 47.9808 227.375ZM38.9936 227.375C38.9936 229.281 40.6376 230.835 42.6542 230.835C44.6708 230.835 46.3148 229.281 46.3148 227.375C46.3148 225.469 44.6708 223.915 42.6542 223.915C40.6376 223.915 38.9936 225.469 38.9936 227.375Z" fill="#13C2C2"/>
<path d="M58.8529 215.244C58.8529 215.68 58.4802 216.032 58.0199 216.032H54.3374C53.877 216.032 53.5044 215.68 53.5044 215.244C53.5044 214.809 53.877 214.457 54.3374 214.457H58.0199C58.4802 214.457 58.8529 214.809 58.8529 215.244Z" fill="#13C2C2"/>
<path d="M65.3084 215.244C65.3084 215.68 64.9358 216.032 64.4755 216.032H60.7929C60.3326 216.032 59.96 215.68 59.96 215.244C59.96 214.809 60.3326 214.457 60.7929 214.457H64.4755C64.9358 214.457 65.3084 214.809 65.3084 215.244Z" fill="#13C2C2"/>
<path d="M60.2338 210.365V213.494C60.2338 213.929 59.8611 214.282 59.4008 214.282C58.9405 214.282 58.5679 213.929 58.5679 213.494V210.365C58.5679 209.93 58.9405 209.578 59.4008 209.578C59.8611 209.578 60.2338 209.93 60.2338 210.365Z" fill="#13C2C2"/>
<path d="M60.2338 217.006V220.135C60.2338 220.57 59.8611 220.922 59.4008 220.922C58.9405 220.922 58.5679 220.57 58.5679 220.135V217.006C58.5679 216.571 58.9405 216.219 59.4008 216.219C59.8611 216.219 60.2338 216.571 60.2338 217.006Z" fill="#13C2C2"/>
<path d="M52.847 242.139C52.847 242.574 52.4744 242.926 52.0141 242.926H48.3315C47.8712 242.926 47.4985 242.574 47.4985 242.139C47.4985 241.704 47.8712 241.352 48.3315 241.352H52.0141C52.4744 241.352 52.847 241.704 52.847 242.139Z" fill="#13C2C2"/>
<path d="M59.2914 242.139C59.2914 242.574 58.9187 242.926 58.4584 242.926H54.7758C54.3155 242.926 53.9429 242.574 53.9429 242.139C53.9429 241.704 54.3155 241.352 54.7758 241.352H58.4584C58.9187 241.352 59.2914 241.704 59.2914 242.139Z" fill="#13C2C2"/>
<path d="M54.2279 237.248V240.377C54.2279 240.812 53.8553 241.164 53.395 241.164C52.9346 241.164 52.562 240.812 52.562 240.377V237.248C52.562 236.813 52.9346 236.461 53.395 236.461C53.8553 236.461 54.2279 236.813 54.2279 237.248Z" fill="#13C2C2"/>
<path d="M54.2279 243.901V247.029C54.2279 247.464 53.8553 247.817 53.395 247.817C52.9346 247.817 52.562 247.464 52.562 247.029V243.901C52.562 243.466 52.9346 243.113 53.395 243.113C53.8553 243.113 54.2279 243.466 54.2279 243.901Z" fill="#13C2C2"/>
<path opacity="0.75" d="M75.644 111.357C75.4248 110.29 74.9755 109.254 74.3069 108.332C73.8685 107.711 73.3315 107.151 72.7068 106.654C69.0132 103.722 63.5004 104.188 60.4096 107.69C58.0313 110.394 57.7792 114.113 59.5 117.004L49.6688 128.151C48.8359 129.094 48.9674 130.503 49.9648 131.29L51.0936 132.181C51.6964 132.658 52.365 133.051 53.0664 133.362C53.7788 133.673 54.5241 133.89 55.3023 134.025C55.8284 134.108 56.2996 133.911 56.5956 133.569C56.8915 133.227 57.023 132.751 56.8367 132.274L56.0037 130.14L58.3711 130.523C58.8972 130.617 59.3684 130.409 59.6644 130.078C59.9603 129.736 60.0808 129.259 59.9055 128.783L59.0725 126.649L61.4399 127.032C61.966 127.115 62.4372 126.918 62.7332 126.576C63.0291 126.234 63.1606 125.758 62.9743 125.281L62.1413 123.157L64.2676 120.744C65.6595 121.199 67.1391 121.303 68.5639 121.065C70.6244 120.733 72.5643 119.708 73.9562 118.019C74.0987 117.853 74.2302 117.677 74.3508 117.501C74.5042 117.283 74.6467 117.066 74.7782 116.838C75.7427 115.128 76.0167 113.17 75.6221 111.337L75.644 111.357ZM66.328 109.42C67.4021 108.208 69.3092 108.042 70.5915 109.047C70.7778 109.192 70.9312 109.348 71.0628 109.524C71.8957 110.56 71.8957 112.041 70.9751 113.088C70.8764 113.201 70.7778 113.295 70.6682 113.388C70.3942 113.616 70.0873 113.792 69.7585 113.916C69.7147 113.937 69.6599 113.947 69.616 113.968C69.3968 114.041 69.1667 114.082 68.9256 114.103C68.8598 114.103 68.7831 114.113 68.7173 114.113C68.6516 114.113 68.5748 114.113 68.5091 114.113C68.4433 114.113 68.3885 114.113 68.3228 114.103C68.257 114.103 68.1912 114.092 68.1255 114.082C68.1255 114.082 68.1255 114.082 68.1036 114.082C68.0488 114.082 67.994 114.061 67.9392 114.051C67.8953 114.051 67.8515 114.03 67.7967 114.02C67.7528 114.02 67.709 113.999 67.6761 113.978C67.6104 113.958 67.5556 113.937 67.4898 113.916C67.4021 113.885 67.3254 113.854 67.2487 113.813C67.0624 113.719 66.876 113.606 66.7116 113.471C65.5499 112.549 65.2978 110.974 66.065 109.783C66.1417 109.658 66.2294 109.544 66.328 109.441V109.42Z" fill="#13C2C2"/>
<path d="M61.1329 121.354C61.2973 121.489 61.3192 121.727 61.1877 121.883L53.4609 130.637C53.3184 130.792 53.0663 130.813 52.9019 130.689C52.7375 130.554 52.7156 130.316 52.8472 130.16L60.5739 121.406C60.7164 121.251 60.9685 121.23 61.1329 121.354Z" fill="#006D75"/>
<path d="M59.4015 119.987C59.5659 120.122 59.5878 120.36 59.4563 120.515L51.7295 129.27C51.587 129.425 51.3349 129.446 51.1705 129.321C51.0061 129.187 50.9842 128.948 51.1157 128.793L58.8425 120.039C58.985 119.883 59.2371 119.863 59.4015 119.987Z" fill="#006D75"/>
<path d="M70.6683 113.388C70.5915 113.512 70.5039 113.626 70.4052 113.73C69.6161 114.621 68.3776 114.942 67.2707 114.652C66.8651 114.548 66.4815 114.362 66.1308 114.092C64.8485 113.077 64.6731 111.274 65.7472 110.062C65.8459 109.948 65.9445 109.855 66.0541 109.762C65.2869 110.953 65.539 112.528 66.7007 113.45C66.8761 113.585 67.0515 113.699 67.2378 113.792C67.3145 113.833 67.4022 113.864 67.4789 113.895C67.5337 113.926 67.5995 113.947 67.6652 113.958C67.7091 113.968 67.7529 113.989 67.7858 113.999C67.8296 114.009 67.8735 114.02 67.9283 114.03C67.9831 114.04 68.0379 114.061 68.0927 114.061C68.0927 114.061 68.1036 114.061 68.1146 114.061C68.1803 114.071 68.2461 114.082 68.3119 114.082C68.3776 114.082 68.4324 114.092 68.4982 114.092C68.5639 114.092 68.6407 114.092 68.7064 114.092C68.7722 114.092 68.8489 114.092 68.9147 114.082C69.1448 114.061 69.375 114.02 69.6051 113.947C69.6599 113.937 69.7038 113.916 69.7476 113.895C70.0764 113.771 70.3833 113.595 70.6573 113.367L70.6683 113.388Z" fill="#006D75"/>
<path opacity="0.7" d="M72.9258 114.474C72.9149 114.339 72.9039 114.194 72.9149 114.049C72.9916 112.609 74.1753 111.48 75.6439 111.345C75.4247 110.278 74.9753 109.242 74.3068 108.32C73.1341 108.507 72.0271 108.921 71.0626 109.512C71.8956 110.548 71.8956 112.029 70.9749 113.076C70.8763 113.19 70.7777 113.283 70.6681 113.376C70.3941 113.604 70.0872 113.78 69.7584 113.904C69.7145 113.925 69.6597 113.935 69.6159 113.956C69.3967 114.029 69.1665 114.07 68.9254 114.091C68.8597 114.091 68.7829 114.101 68.7172 114.101C68.6405 114.101 68.5747 114.101 68.5089 114.101C68.4432 114.101 68.3884 114.101 68.3226 114.091C68.2569 114.091 68.1911 114.08 68.1253 114.07C68.1253 114.07 68.1253 114.07 68.1034 114.07C68.0486 114.07 67.9938 114.049 67.939 114.039C67.8952 114.039 67.8513 114.018 67.7965 114.008C67.7527 114.008 67.7089 113.987 67.676 113.967C67.6102 113.946 67.5554 113.925 67.4897 113.904C67.402 114.153 67.3253 114.412 67.2705 114.671C67.1718 115.116 67.1061 115.572 67.0732 116.039C66.9745 117.914 67.5335 119.675 68.5747 121.105C70.6352 120.773 72.5751 119.747 73.967 118.059C74.1095 117.893 74.241 117.717 74.3616 117.541C74.515 117.323 74.6575 117.106 74.789 116.878C73.7588 116.484 73.0245 115.572 72.9149 114.495L72.9258 114.474Z" fill="#00A6B9"/>
<path d="M86.3739 117.078C86.4726 112.665 82.79 108.915 78.132 108.677C73.3096 108.428 69.1996 111.93 68.9475 116.478C68.7503 119.99 70.9094 123.098 74.1207 124.444L73.3206 138.928C73.2548 140.161 74.2522 141.207 75.5564 141.269L77.0251 141.342C77.8142 141.383 78.5923 141.321 79.3595 141.165C80.1267 141.01 80.8611 140.761 81.5625 140.43C82.0338 140.202 82.2968 139.777 82.3187 139.332C82.3407 138.897 82.1434 138.441 81.694 138.161L79.6774 136.928L81.8146 135.903C82.2859 135.675 82.5379 135.25 82.5708 134.804C82.5927 134.369 82.3955 133.913 81.9461 133.634L79.9295 132.401L82.0667 131.365C82.5379 131.137 82.79 130.712 82.8229 130.267C82.8448 129.832 82.6475 129.376 82.1982 129.096L80.1815 127.863L80.3569 124.735C83.7764 123.688 86.3082 120.694 86.3959 117.058L86.3739 117.078ZM80.7734 115.224C80.4884 116.592 79.1623 117.586 77.6498 117.514C76.1263 117.441 74.9317 116.312 74.7892 114.934C74.7783 114.789 74.7673 114.654 74.7892 114.509C74.8769 112.934 76.3017 111.712 77.9676 111.795C79.6335 111.878 80.9268 113.225 80.8391 114.81C80.8391 114.955 80.8063 115.089 80.7843 115.234L80.7734 115.224Z" fill="#00A6B9"/>
<path d="M78.1867 127.004C78.4059 127.015 78.5703 127.191 78.5594 127.398L77.9347 138.784C77.9237 138.991 77.7374 139.146 77.5182 139.136C77.299 139.126 77.1346 138.949 77.1455 138.742L77.7703 127.357C77.7812 127.149 77.9675 126.994 78.1867 127.004Z" fill="#13C2C2"/>
<path d="M75.9402 126.891C76.1594 126.901 76.3238 127.078 76.3128 127.285L75.6881 138.67C75.6771 138.878 75.4908 139.033 75.2716 139.023C75.0524 139.012 74.888 138.836 74.899 138.629L75.5237 127.243C75.5346 127.036 75.721 126.881 75.9402 126.891Z" fill="#13C2C2"/>
<path d="M80.7734 115.65C80.6857 117.225 79.2609 118.447 77.595 118.364C75.929 118.281 74.6358 116.934 74.7234 115.36C74.7234 115.215 74.7563 115.08 74.7782 114.945C74.9207 116.334 76.1154 117.452 77.6388 117.525C79.1622 117.597 80.4774 116.603 80.7624 115.235C80.7734 115.37 80.7843 115.515 80.7624 115.66L80.7734 115.65Z" fill="#219598"/>
<path d="M79.9294 97.8803C74.8549 95.8394 68.9584 98.0772 66.7993 102.874C66.5143 103.495 66.3171 104.127 66.1855 104.77C67.4459 104.645 68.7283 104.77 69.9558 105.174C70.0325 104.873 70.1421 104.573 70.2736 104.272C71.6217 101.278 75.2933 99.8798 78.4607 101.154C81.6282 102.428 83.1078 105.899 81.7597 108.893C81.672 109.1 81.5624 109.297 81.4528 109.484C82.6146 110.012 83.6229 110.789 84.423 111.721C84.7299 111.276 85.0039 110.789 85.234 110.281C87.3931 105.485 85.0258 99.9109 79.9403 97.87L79.9294 97.8803ZM78.669 111.918C77.7922 112.312 76.8167 112.509 75.8303 112.488C75.8194 112.488 75.8084 112.488 75.7975 112.488C75.0522 112.467 74.2959 112.312 73.5726 112.022C72.8711 111.742 72.2464 111.348 71.7203 110.872C71.6984 110.851 71.6655 110.82 71.6436 110.799C71.0299 110.229 70.5586 109.556 70.2407 108.82C69.0242 108.106 67.424 108.302 66.4267 109.318C66.9856 111.058 68.0597 112.633 69.5612 113.835C69.6051 113.876 69.6599 113.907 69.7037 113.949C69.7914 114.021 69.8791 114.083 69.9667 114.146C70.6024 114.601 71.3148 114.995 72.082 115.306C72.9588 115.658 73.8576 115.886 74.7563 115.99C74.8768 116 74.9974 116.021 75.118 116.021C75.1399 116.021 75.1728 116.021 75.1947 116.021C77.1565 116.176 79.1074 115.762 80.8062 114.881C80.8062 114.86 80.8062 114.829 80.8062 114.809C80.8829 113.462 79.9623 112.291 78.658 111.918H78.669Z" fill="#006D75"/>
<g opacity="0.5">
<path d="M38.4457 147.461H36.1441C35.5523 147.461 35.0591 147.005 35.0591 146.436V144.26C35.0591 143.701 35.5413 143.234 36.1441 143.234C36.7469 143.234 37.2292 143.69 37.2292 144.26V145.41H38.4457C39.0376 145.41 39.5308 145.866 39.5308 146.436C39.5308 147.005 39.0485 147.461 38.4457 147.461Z" fill="#13C2C2"/>
<path d="M100.611 147.461H96.0406C95.4487 147.461 94.9555 147.006 94.9555 146.436C94.9555 145.866 95.4378 145.41 96.0406 145.41H100.611C101.203 145.41 101.696 145.866 101.696 146.436C101.696 147.006 101.214 147.461 100.611 147.461ZM91.7333 147.461H87.163C86.5711 147.461 86.0779 147.006 86.0779 146.436C86.0779 145.866 86.5602 145.41 87.163 145.41H91.7333C92.3251 145.41 92.8183 145.866 92.8183 146.436C92.8183 147.006 92.3361 147.461 91.7333 147.461ZM82.8557 147.461H78.2854C77.6935 147.461 77.2003 147.006 77.2003 146.436C77.2003 145.866 77.6826 145.41 78.2854 145.41H82.8557C83.4475 145.41 83.9407 145.866 83.9407 146.436C83.9407 147.006 83.4585 147.461 82.8557 147.461ZM73.9781 147.461H69.4078C68.8159 147.461 68.3227 147.006 68.3227 146.436C68.3227 145.866 68.805 145.41 69.4078 145.41H73.9781C74.5699 145.41 75.0631 145.866 75.0631 146.436C75.0631 147.006 74.5809 147.461 73.9781 147.461ZM65.1005 147.461H60.5302C59.9383 147.461 59.4451 147.006 59.4451 146.436C59.4451 145.866 59.9274 145.41 60.5302 145.41H65.1005C65.6923 145.41 66.1855 145.866 66.1855 146.436C66.1855 147.006 65.7033 147.461 65.1005 147.461ZM56.2229 147.461H51.6526C51.0607 147.461 50.5675 147.006 50.5675 146.436C50.5675 145.866 51.0498 145.41 51.6526 145.41H56.2229C56.8147 145.41 57.3079 145.866 57.3079 146.436C57.3079 147.006 56.8257 147.461 56.2229 147.461ZM47.3453 147.461H42.775C42.1831 147.461 41.6899 147.006 41.6899 146.436C41.6899 145.866 42.1722 145.41 42.775 145.41H47.3453C47.9371 145.41 48.4303 145.866 48.4303 146.436C48.4303 147.006 47.9481 147.461 47.3453 147.461Z" fill="#13C2C2"/>
<path d="M107.209 147.461H104.907C104.315 147.461 103.822 147.005 103.822 146.436C103.822 145.866 104.305 145.41 104.907 145.41H106.124V144.26C106.124 143.701 106.606 143.234 107.209 143.234C107.812 143.234 108.294 143.69 108.294 144.26V146.436C108.294 146.995 107.812 147.461 107.209 147.461Z" fill="#13C2C2"/>
<path d="M107.209 141.37C106.617 141.37 106.124 140.914 106.124 140.345V136.19C106.124 135.631 106.606 135.165 107.209 135.165C107.811 135.165 108.294 135.621 108.294 136.19V140.345C108.294 140.904 107.811 141.37 107.209 141.37ZM107.209 133.3C106.617 133.3 106.124 132.844 106.124 132.274V128.12C106.124 127.56 106.606 127.094 107.209 127.094C107.811 127.094 108.294 127.55 108.294 128.12V132.274C108.294 132.834 107.811 133.3 107.209 133.3ZM107.209 125.229C106.617 125.229 106.124 124.774 106.124 124.204V120.049C106.124 119.49 106.606 119.024 107.209 119.024C107.811 119.024 108.294 119.48 108.294 120.049V124.204C108.294 124.763 107.811 125.229 107.209 125.229ZM107.209 117.159C106.617 117.159 106.124 116.703 106.124 116.133V111.979C106.124 111.42 106.606 110.953 107.209 110.953C107.811 110.953 108.294 111.409 108.294 111.979V116.133C108.294 116.693 107.811 117.159 107.209 117.159ZM107.209 109.089C106.617 109.089 106.124 108.633 106.124 108.063V103.909C106.124 103.349 106.606 102.883 107.209 102.883C107.811 102.883 108.294 103.339 108.294 103.909V108.063C108.294 108.622 107.811 109.089 107.209 109.089ZM107.209 101.018C106.617 101.018 106.124 100.562 106.124 99.9925V95.8381C106.124 95.2787 106.606 94.8125 107.209 94.8125C107.811 94.8125 108.294 95.2683 108.294 95.8381V99.9925C108.294 100.552 107.811 101.018 107.209 101.018Z" fill="#13C2C2"/>
<path d="M107.209 92.9378C106.617 92.9378 106.124 92.482 106.124 91.9122V90.7622H104.907C104.315 90.7622 103.822 90.3064 103.822 89.7366C103.822 89.1668 104.305 88.7109 104.907 88.7109H107.209C107.801 88.7109 108.294 89.1668 108.294 89.7366V91.9122C108.294 92.4716 107.812 92.9378 107.209 92.9378Z" fill="#13C2C2"/>
<path d="M100.611 90.7739H96.0406C95.4487 90.7739 94.9555 90.3181 94.9555 89.7483C94.9555 89.1785 95.4378 88.7227 96.0406 88.7227H100.611C101.203 88.7227 101.696 89.1785 101.696 89.7483C101.696 90.3181 101.214 90.7739 100.611 90.7739ZM91.7333 90.7739H87.163C86.5711 90.7739 86.0779 90.3181 86.0779 89.7483C86.0779 89.1785 86.5602 88.7227 87.163 88.7227H91.7333C92.3251 88.7227 92.8183 89.1785 92.8183 89.7483C92.8183 90.3181 92.3361 90.7739 91.7333 90.7739ZM82.8557 90.7739H78.2854C77.6935 90.7739 77.2003 90.3181 77.2003 89.7483C77.2003 89.1785 77.6826 88.7227 78.2854 88.7227H82.8557C83.4475 88.7227 83.9407 89.1785 83.9407 89.7483C83.9407 90.3181 83.4585 90.7739 82.8557 90.7739ZM73.9781 90.7739H69.4078C68.8159 90.7739 68.3227 90.3181 68.3227 89.7483C68.3227 89.1785 68.805 88.7227 69.4078 88.7227H73.9781C74.5699 88.7227 75.0631 89.1785 75.0631 89.7483C75.0631 90.3181 74.5809 90.7739 73.9781 90.7739ZM65.1005 90.7739H60.5302C59.9383 90.7739 59.4451 90.3181 59.4451 89.7483C59.4451 89.1785 59.9274 88.7227 60.5302 88.7227H65.1005C65.6923 88.7227 66.1855 89.1785 66.1855 89.7483C66.1855 90.3181 65.7033 90.7739 65.1005 90.7739ZM56.2229 90.7739H51.6526C51.0607 90.7739 50.5675 90.3181 50.5675 89.7483C50.5675 89.1785 51.0498 88.7227 51.6526 88.7227H56.2229C56.8147 88.7227 57.3079 89.1785 57.3079 89.7483C57.3079 90.3181 56.8257 90.7739 56.2229 90.7739ZM47.3453 90.7739H42.775C42.1831 90.7739 41.6899 90.3181 41.6899 89.7483C41.6899 89.1785 42.1722 88.7227 42.775 88.7227H47.3453C47.9371 88.7227 48.4303 89.1785 48.4303 89.7483C48.4303 90.3181 47.9481 90.7739 47.3453 90.7739Z" fill="#13C2C2"/>
<path d="M36.1441 92.9378C35.5523 92.9378 35.0591 92.482 35.0591 91.9122V89.7366C35.0591 89.1771 35.5413 88.7109 36.1441 88.7109H38.4457C39.0376 88.7109 39.5308 89.1668 39.5308 89.7366C39.5308 90.3064 39.0485 90.7622 38.4457 90.7622H37.2292V91.9122C37.2292 92.4716 36.7469 92.9378 36.1441 92.9378Z" fill="#13C2C2"/>
<path d="M36.1441 141.37C35.5523 141.37 35.0591 140.914 35.0591 140.345V136.19C35.0591 135.631 35.5413 135.165 36.1441 135.165C36.7469 135.165 37.2292 135.621 37.2292 136.19V140.345C37.2292 140.904 36.7469 141.37 36.1441 141.37ZM36.1441 133.3C35.5523 133.3 35.0591 132.844 35.0591 132.274V128.12C35.0591 127.56 35.5413 127.094 36.1441 127.094C36.7469 127.094 37.2292 127.55 37.2292 128.12V132.274C37.2292 132.834 36.7469 133.3 36.1441 133.3ZM36.1441 125.229C35.5523 125.229 35.0591 124.774 35.0591 124.204V120.049C35.0591 119.49 35.5413 119.024 36.1441 119.024C36.7469 119.024 37.2292 119.48 37.2292 120.049V124.204C37.2292 124.763 36.7469 125.229 36.1441 125.229ZM36.1441 117.159C35.5523 117.159 35.0591 116.703 35.0591 116.133V111.979C35.0591 111.42 35.5413 110.953 36.1441 110.953C36.7469 110.953 37.2292 111.409 37.2292 111.979V116.133C37.2292 116.693 36.7469 117.159 36.1441 117.159ZM36.1441 109.089C35.5523 109.089 35.0591 108.633 35.0591 108.063V103.909C35.0591 103.349 35.5413 102.883 36.1441 102.883C36.7469 102.883 37.2292 103.339 37.2292 103.909V108.063C37.2292 108.622 36.7469 109.089 36.1441 109.089ZM36.1441 101.018C35.5523 101.018 35.0591 100.562 35.0591 99.9925V95.8381C35.0591 95.2787 35.5413 94.8125 36.1441 94.8125C36.7469 94.8125 37.2292 95.2683 37.2292 95.8381V99.9925C37.2292 100.552 36.7469 101.018 36.1441 101.018Z" fill="#13C2C2"/>
</g>
<g opacity="0.5">
<path d="M137.754 161.708C137.162 161.708 136.669 161.253 136.669 160.683V156.342C136.669 155.782 137.151 155.316 137.754 155.316C138.357 155.316 138.839 155.772 138.839 156.342V160.683C138.839 161.242 138.357 161.708 137.754 161.708ZM137.754 153.275C137.162 153.275 136.669 152.819 136.669 152.25V147.909C136.669 147.349 137.151 146.883 137.754 146.883C138.357 146.883 138.839 147.339 138.839 147.909V152.25C138.839 152.809 138.357 153.275 137.754 153.275ZM137.754 144.842C137.162 144.842 136.669 144.386 136.669 143.817V139.476C136.669 138.916 137.151 138.45 137.754 138.45C138.357 138.45 138.839 138.906 138.839 139.476V143.817C138.839 144.376 138.357 144.842 137.754 144.842ZM137.754 136.409C137.162 136.409 136.669 135.953 136.669 135.384V131.043C136.669 130.483 137.151 130.017 137.754 130.017C138.357 130.017 138.839 130.473 138.839 131.043V135.384C138.839 135.943 138.357 136.409 137.754 136.409ZM137.754 127.976C137.162 127.976 136.669 127.52 136.669 126.951V122.61C136.669 122.05 137.151 121.584 137.754 121.584C138.357 121.584 138.839 122.04 138.839 122.61V126.951C138.839 127.51 138.357 127.976 137.754 127.976ZM134.039 123.055H129.446C128.855 123.055 128.361 122.599 128.361 122.03C128.361 121.46 128.844 121.004 129.446 121.004H134.039C134.631 121.004 135.124 121.46 135.124 122.03C135.124 122.599 134.642 123.055 134.039 123.055ZM125.117 123.055H120.525C119.933 123.055 119.44 122.599 119.44 122.03C119.44 121.46 119.922 121.004 120.525 121.004H125.117C125.709 121.004 126.202 121.46 126.202 122.03C126.202 122.599 125.72 123.055 125.117 123.055ZM116.196 123.055H111.604C111.012 123.055 110.519 122.599 110.519 122.03C110.519 121.46 111.001 121.004 111.604 121.004H116.196C116.788 121.004 117.281 121.46 117.281 122.03C117.281 122.599 116.799 123.055 116.196 123.055Z" fill="#13C2C2"/>
</g>
<path d="M376.375 116.899L376.189 122.96L382.195 123.125C382.458 124.565 382.973 125.974 383.719 127.3L379.455 131.103L383.861 135.516L387.938 131.88C389.538 132.978 391.314 133.734 393.177 134.138L393.002 139.815L399.413 139.991L399.589 134.138C400.849 133.869 402.076 133.444 403.249 132.843L407.272 136.873L411.941 132.708L408.094 128.854C409.255 127.342 410.055 125.653 410.483 123.902L415.733 124.047L415.919 117.987L410.483 117.842C410.121 116.319 409.485 114.848 408.565 113.491L412.642 109.854L408.236 105.441L403.973 109.243C402.394 108.331 400.674 107.72 398.898 107.43L399.073 101.711L392.662 101.535L392.476 107.73C391.138 108.093 389.845 108.632 388.629 109.367L384.782 105.513L380.113 109.678L384.135 113.698C383.444 114.765 382.918 115.894 382.557 117.075L376.364 116.909L376.375 116.899ZM392.388 116.795C394.744 114.692 398.471 114.796 400.707 117.023C402.931 119.251 402.822 122.773 400.465 124.887C398.109 126.99 394.383 126.886 392.147 124.659C389.911 122.431 390.031 118.909 392.388 116.795Z" fill="#006D75"/>
<path d="M397.419 129.602C402.603 129.074 406.362 124.671 405.803 119.77C405.244 114.87 400.586 111.317 395.402 111.845C390.218 112.373 386.459 116.776 387.017 121.677C387.576 126.577 392.234 130.13 397.419 129.602ZM392.388 116.797C394.744 114.694 398.471 114.798 400.707 117.025C402.931 119.252 402.822 122.775 400.465 124.888C398.109 126.991 394.383 126.888 392.147 124.66C389.911 122.433 390.032 118.911 392.388 116.797Z" fill="#13C2C2"/>
<path d="M418.582 119.489L418.473 123.011L421.958 123.105C422.111 123.944 422.407 124.762 422.846 125.529L420.369 127.735L422.922 130.294L425.29 128.181C426.221 128.813 427.252 129.258 428.337 129.486L428.238 132.781L431.964 132.884L432.063 129.486C432.797 129.331 433.51 129.082 434.189 128.74L436.524 131.082L439.231 128.668L436.995 126.43C437.664 125.55 438.135 124.576 438.376 123.55L441.423 123.633L441.533 120.111L438.376 120.028C438.168 119.147 437.795 118.287 437.258 117.5L439.625 115.386L437.072 112.827L434.595 115.034C433.685 114.506 432.677 114.154 431.647 113.977L431.745 110.662L428.019 110.559L427.909 114.154C427.131 114.361 426.375 114.682 425.673 115.107L423.438 112.869L420.73 115.283L423.065 117.624C422.659 118.246 422.363 118.898 422.155 119.582L418.56 119.479L418.582 119.489ZM427.876 119.427C429.246 118.204 431.416 118.266 432.699 119.561C433.992 120.856 433.926 122.908 432.556 124.13C431.186 125.353 429.016 125.291 427.723 123.996C426.43 122.701 426.495 120.649 427.865 119.427H427.876Z" fill="#08979C"/>
<path d="M430.803 126.867C433.817 126.556 435.998 124.007 435.669 121.158C435.34 118.309 432.644 116.248 429.63 116.558C426.616 116.869 424.435 119.418 424.764 122.267C425.093 125.116 427.789 127.177 430.803 126.867ZM427.876 119.428C429.246 118.206 431.416 118.268 432.699 119.563C433.992 120.858 433.926 122.909 432.556 124.131C431.186 125.354 429.016 125.292 427.723 123.997C426.43 122.702 426.495 120.651 427.865 119.428H427.876Z" fill="#08979C"/>
<g opacity="0.5">
<path d="M458.4 147.461H456.098C455.506 147.461 455.013 147.005 455.013 146.436C455.013 145.866 455.495 145.41 456.098 145.41H457.315V144.26C457.315 143.701 457.797 143.234 458.4 143.234C459.003 143.234 459.485 143.69 459.485 144.26V146.436C459.485 146.995 459.003 147.461 458.4 147.461Z" fill="#00474F"/>
<path d="M451.726 147.461H447.089C446.498 147.461 446.004 147.006 446.004 146.436C446.004 145.866 446.487 145.41 447.089 145.41H451.726C452.317 145.41 452.811 145.866 452.811 146.436C452.811 147.006 452.328 147.461 451.726 147.461ZM442.716 147.461H438.08C437.489 147.461 436.995 147.006 436.995 146.436C436.995 145.866 437.478 145.41 438.08 145.41H442.716C443.308 145.41 443.801 145.866 443.801 146.436C443.801 147.006 443.319 147.461 442.716 147.461ZM433.707 147.461H429.071C428.479 147.461 427.986 147.006 427.986 146.436C427.986 145.866 428.468 145.41 429.071 145.41H433.707C434.299 145.41 434.792 145.866 434.792 146.436C434.792 147.006 434.31 147.461 433.707 147.461ZM424.698 147.461H420.062C419.47 147.461 418.977 147.006 418.977 146.436C418.977 145.866 419.459 145.41 420.062 145.41H424.698C425.29 145.41 425.783 145.866 425.783 146.436C425.783 147.006 425.301 147.461 424.698 147.461ZM415.689 147.461H411.053C410.461 147.461 409.968 147.006 409.968 146.436C409.968 145.866 410.45 145.41 411.053 145.41H415.689C416.281 145.41 416.774 145.866 416.774 146.436C416.774 147.006 416.292 147.461 415.689 147.461ZM406.68 147.461H402.044C401.452 147.461 400.959 147.006 400.959 146.436C400.959 145.866 401.441 145.41 402.044 145.41H406.68C407.272 145.41 407.765 145.866 407.765 146.436C407.765 147.006 407.283 147.461 406.68 147.461ZM397.671 147.461H393.035C392.443 147.461 391.95 147.006 391.95 146.436C391.95 145.866 392.432 145.41 393.035 145.41H397.671C398.263 145.41 398.756 145.866 398.756 146.436C398.756 147.006 398.274 147.461 397.671 147.461ZM388.662 147.461H384.026C383.434 147.461 382.941 147.006 382.941 146.436C382.941 145.866 383.423 145.41 384.026 145.41H388.662C389.254 145.41 389.747 145.866 389.747 146.436C389.747 147.006 389.265 147.461 388.662 147.461ZM379.653 147.461H375.017C374.425 147.461 373.931 147.006 373.931 146.436C373.931 145.866 374.414 145.41 375.017 145.41H379.653C380.244 145.41 380.738 145.866 380.738 146.436C380.738 147.006 380.255 147.461 379.653 147.461ZM370.643 147.461H366.007C365.416 147.461 364.922 147.006 364.922 146.436C364.922 145.866 365.405 145.41 366.007 145.41H370.643C371.235 145.41 371.729 145.866 371.729 146.436C371.729 147.006 371.246 147.461 370.643 147.461Z" fill="#00474F"/>
<path d="M361.634 147.461H359.333C358.741 147.461 358.248 147.005 358.248 146.436V144.26C358.248 143.701 358.73 143.234 359.333 143.234C359.935 143.234 360.418 143.69 360.418 144.26V145.41H361.634C362.226 145.41 362.719 145.866 362.719 146.436C362.719 147.005 362.237 147.461 361.634 147.461Z" fill="#00474F"/>
<path d="M359.333 141.101C358.741 141.101 358.248 140.645 358.248 140.076V135.631C358.248 135.072 358.73 134.605 359.333 134.605C359.935 134.605 360.418 135.061 360.418 135.631V140.076C360.418 140.635 359.935 141.101 359.333 141.101ZM359.333 132.471C358.741 132.471 358.248 132.015 358.248 131.446V127.001C358.248 126.442 358.73 125.976 359.333 125.976C359.935 125.976 360.418 126.431 360.418 127.001V131.446C360.418 132.005 359.935 132.471 359.333 132.471ZM359.333 123.841C358.741 123.841 358.248 123.386 358.248 122.816V118.371C358.248 117.812 358.73 117.346 359.333 117.346C359.935 117.346 360.418 117.802 360.418 118.371V122.816C360.418 123.375 359.935 123.841 359.333 123.841ZM359.333 115.212C358.741 115.212 358.248 114.756 358.248 114.186V109.741C358.248 109.182 358.73 108.716 359.333 108.716C359.935 108.716 360.418 109.172 360.418 109.741V114.186C360.418 114.745 359.935 115.212 359.333 115.212ZM359.333 106.582C358.741 106.582 358.248 106.126 358.248 105.556V101.112C358.248 100.552 358.73 100.086 359.333 100.086C359.935 100.086 360.418 100.542 360.418 101.112V105.556C360.418 106.115 359.935 106.582 359.333 106.582Z" fill="#00474F"/>
<path d="M359.333 97.93C358.741 97.93 358.248 97.4742 358.248 96.9044V94.7288C358.248 94.1693 358.73 93.7031 359.333 93.7031H361.634C362.226 93.7031 362.719 94.159 362.719 94.7288C362.719 95.2986 362.237 95.7544 361.634 95.7544H360.418V96.9044C360.418 97.4638 359.935 97.93 359.333 97.93Z" fill="#00474F"/>
<path d="M451.726 95.7544H447.089C446.498 95.7544 446.004 95.2986 446.004 94.7288C446.004 94.159 446.487 93.7031 447.089 93.7031H451.726C452.317 93.7031 452.811 94.159 452.811 94.7288C452.811 95.2986 452.328 95.7544 451.726 95.7544ZM442.716 95.7544H438.08C437.489 95.7544 436.995 95.2986 436.995 94.7288C436.995 94.159 437.478 93.7031 438.08 93.7031H442.716C443.308 93.7031 443.801 94.159 443.801 94.7288C443.801 95.2986 443.319 95.7544 442.716 95.7544ZM433.707 95.7544H429.071C428.479 95.7544 427.986 95.2986 427.986 94.7288C427.986 94.159 428.468 93.7031 429.071 93.7031H433.707C434.299 93.7031 434.792 94.159 434.792 94.7288C434.792 95.2986 434.31 95.7544 433.707 95.7544ZM424.698 95.7544H420.062C419.47 95.7544 418.977 95.2986 418.977 94.7288C418.977 94.159 419.459 93.7031 420.062 93.7031H424.698C425.29 93.7031 425.783 94.159 425.783 94.7288C425.783 95.2986 425.301 95.7544 424.698 95.7544ZM415.689 95.7544H411.053C410.461 95.7544 409.968 95.2986 409.968 94.7288C409.968 94.159 410.45 93.7031 411.053 93.7031H415.689C416.281 93.7031 416.774 94.159 416.774 94.7288C416.774 95.2986 416.292 95.7544 415.689 95.7544ZM406.68 95.7544H402.044C401.452 95.7544 400.959 95.2986 400.959 94.7288C400.959 94.159 401.441 93.7031 402.044 93.7031H406.68C407.272 93.7031 407.765 94.159 407.765 94.7288C407.765 95.2986 407.283 95.7544 406.68 95.7544ZM397.671 95.7544H393.035C392.443 95.7544 391.95 95.2986 391.95 94.7288C391.95 94.159 392.432 93.7031 393.035 93.7031H397.671C398.263 93.7031 398.756 94.159 398.756 94.7288C398.756 95.2986 398.274 95.7544 397.671 95.7544ZM388.662 95.7544H384.026C383.434 95.7544 382.941 95.2986 382.941 94.7288C382.941 94.159 383.423 93.7031 384.026 93.7031H388.662C389.254 93.7031 389.747 94.159 389.747 94.7288C389.747 95.2986 389.265 95.7544 388.662 95.7544ZM379.653 95.7544H375.017C374.425 95.7544 373.931 95.2986 373.931 94.7288C373.931 94.159 374.414 93.7031 375.017 93.7031H379.653C380.244 93.7031 380.738 94.159 380.738 94.7288C380.738 95.2986 380.255 95.7544 379.653 95.7544ZM370.643 95.7544H366.007C365.416 95.7544 364.922 95.2986 364.922 94.7288C364.922 94.159 365.405 93.7031 366.007 93.7031H370.643C371.235 93.7031 371.729 94.159 371.729 94.7288C371.729 95.2986 371.246 95.7544 370.643 95.7544Z" fill="#00474F"/>
<path d="M458.4 97.93C457.808 97.93 457.315 97.4742 457.315 96.9044V95.7544H456.098C455.506 95.7544 455.013 95.2986 455.013 94.7288C455.013 94.159 455.495 93.7031 456.098 93.7031H458.4C458.992 93.7031 459.485 94.159 459.485 94.7288V96.9044C459.485 97.4638 459.003 97.93 458.4 97.93Z" fill="#00474F"/>
<path d="M458.4 141.101C457.808 141.101 457.315 140.645 457.315 140.076V135.631C457.315 135.072 457.797 134.605 458.4 134.605C459.003 134.605 459.485 135.061 459.485 135.631V140.076C459.485 140.635 459.003 141.101 458.4 141.101ZM458.4 132.471C457.808 132.471 457.315 132.015 457.315 131.446V127.001C457.315 126.442 457.797 125.976 458.4 125.976C459.003 125.976 459.485 126.431 459.485 127.001V131.446C459.485 132.005 459.003 132.471 458.4 132.471ZM458.4 123.841C457.808 123.841 457.315 123.386 457.315 122.816V118.371C457.315 117.812 457.797 117.346 458.4 117.346C459.003 117.346 459.485 117.802 459.485 118.371V122.816C459.485 123.375 459.003 123.841 458.4 123.841ZM458.4 115.212C457.808 115.212 457.315 114.756 457.315 114.186V109.741C457.315 109.182 457.797 108.716 458.4 108.716C459.003 108.716 459.485 109.172 459.485 109.741V114.186C459.485 114.745 459.003 115.212 458.4 115.212ZM458.4 106.582C457.808 106.582 457.315 106.126 457.315 105.556V101.112C457.315 100.552 457.797 100.086 458.4 100.086C459.003 100.086 459.485 100.542 459.485 101.112V105.556C459.485 106.115 459.003 106.582 458.4 106.582Z" fill="#00474F"/>
</g>
<g opacity="0.5">
<path d="M331.012 160.681C330.42 160.681 329.927 160.225 329.927 159.656V155.315C329.927 154.755 330.409 154.289 331.012 154.289C331.615 154.289 332.097 154.745 332.097 155.315V159.656C332.097 160.215 331.615 160.681 331.012 160.681ZM331.012 152.248C330.42 152.248 329.927 151.792 329.927 151.222V146.882C329.927 146.322 330.409 145.856 331.012 145.856C331.615 145.856 332.097 146.312 332.097 146.882V151.222C332.097 151.782 331.615 152.248 331.012 152.248ZM331.012 143.815C330.42 143.815 329.927 143.359 329.927 142.789V138.449C329.927 137.889 330.409 137.423 331.012 137.423C331.615 137.423 332.097 137.879 332.097 138.449V142.789C332.097 143.349 331.615 143.815 331.012 143.815ZM331.012 135.382C330.42 135.382 329.927 134.926 329.927 134.356V130.016C329.927 129.456 330.409 128.99 331.012 128.99C331.615 128.99 332.097 129.446 332.097 130.016V134.356C332.097 134.916 331.615 135.382 331.012 135.382ZM331.012 126.949C330.42 126.949 329.927 126.493 329.927 125.923V121.583C329.927 121.023 330.409 120.557 331.012 120.557C331.615 120.557 332.097 121.013 332.097 121.583V125.923C332.097 126.483 331.615 126.949 331.012 126.949ZM356.439 121.344H351.847C351.255 121.344 350.762 120.888 350.762 120.319C350.762 119.749 351.244 119.293 351.847 119.293H356.439C357.031 119.293 357.524 119.749 357.524 120.319C357.524 120.888 357.042 121.344 356.439 121.344ZM347.518 121.344H342.925C342.333 121.344 341.84 120.888 341.84 120.319C341.84 119.749 342.323 119.293 342.925 119.293H347.518C348.109 119.293 348.603 119.749 348.603 120.319C348.603 120.888 348.12 121.344 347.518 121.344ZM338.596 121.344H334.004C333.412 121.344 332.919 120.888 332.919 120.319C332.919 119.749 333.401 119.293 334.004 119.293H338.596C339.188 119.293 339.681 119.749 339.681 120.319C339.681 120.888 339.199 121.344 338.596 121.344Z" fill="#006D75"/>
</g>
<path d="M56.6263 240.309L56.5625 240.402L56.5838 240.309H56.6263Z" fill="#0060E6"/>
<path d="M444.634 152.113H93.3878C84.8894 152.113 78 158.626 78 166.659V361.468C78 369.501 84.8894 376.014 93.3878 376.014H444.634C453.132 376.014 460.022 369.501 460.022 361.468V166.659C460.022 158.626 453.132 152.113 444.634 152.113Z" fill="#36CFC9"/>
<path d="M460.011 268.012V361.48C460.011 369.509 453.128 376.025 444.623 376.025H93.3771C84.8831 376.025 77.9893 369.519 77.9893 361.48V268.012H460.011Z" fill="#36CFC9"/>
<path d="M443.045 176.565V351.576C443.045 356.725 438.628 360.9 433.181 360.9H104.83C102.529 360.9 100.413 360.154 98.7366 358.901C98.2872 358.569 97.8817 358.196 97.4981 357.803C95.9198 356.155 94.9663 353.969 94.9663 351.566V176.554C94.9663 171.406 99.3832 167.23 104.83 167.23H433.181C435 167.23 436.71 167.697 438.168 168.515C439.549 169.282 440.711 170.349 441.554 171.633C442.497 173.063 443.045 174.752 443.045 176.565Z" fill="white"/>
<path d="M495.697 368.242V369.485C495.697 375.681 493.593 381.41 490.02 386.072C484.573 393.189 475.717 397.82 465.71 397.82H72.2903C62.2838 397.82 53.4281 393.189 47.981 386.072C44.408 381.41 42.3037 375.681 42.3037 369.485V368.242H495.697Z" fill="#00474F"/>
<g opacity="0.2">
<path d="M443.045 176.562V186.891H94.9663V176.562C94.9663 174.573 95.6239 172.739 96.7418 171.227C98.5174 168.813 101.477 167.238 104.83 167.238H433.181C436.535 167.238 439.494 168.813 441.259 171.227C442.387 172.739 443.034 174.573 443.034 176.562H443.045Z" fill="#00A6BF"/>
<path d="M128.997 177.569V179.506C128.997 180.065 128.362 180.407 127.857 180.128L126.082 179.164L124.306 178.201C123.802 177.921 123.802 177.227 124.306 176.947L126.082 175.984L127.857 175.02C128.362 174.74 128.997 175.093 128.997 175.642V177.579V177.569Z" fill="white"/>
<path d="M138.226 177.569V179.506C138.226 180.065 138.861 180.407 139.365 180.128L141.141 179.164L142.916 178.201C143.421 177.921 143.421 177.227 142.916 176.947L141.141 175.984L139.365 175.02C138.861 174.74 138.226 175.093 138.226 175.642V177.579V177.569Z" fill="white"/>
<path d="M359.004 174.957H174.317C173.863 174.957 173.495 175.305 173.495 175.734V179.401C173.495 179.831 173.863 180.178 174.317 180.178H359.004C359.458 180.178 359.826 179.831 359.826 179.401V175.734C359.826 175.305 359.458 174.957 359.004 174.957Z" fill="white"/>
</g>
<path d="M218.19 368.242V368.522C218.19 370.77 219.779 372.583 221.741 372.583H314.298C316.26 372.583 317.849 370.76 317.849 368.522V368.242H218.19Z" fill="white"/>
<path opacity="0.3" d="M441.27 171.227H96.7422C98.5177 168.813 101.477 167.238 104.831 167.238H433.181C436.535 167.238 439.494 168.813 441.259 171.227H441.27Z" fill="#00A6BF"/>
<path d="M303.645 120.453H215.066C209.062 120.453 204.194 125.054 204.194 130.73V132.792C204.194 138.468 209.062 143.069 215.066 143.069H303.645C309.65 143.069 314.517 138.468 314.517 132.792V130.73C314.517 125.054 309.65 120.453 303.645 120.453Z" fill="#006D75"/>
<path d="M302.713 125.043C298.789 125.043 295.6 128.058 295.6 131.767C295.6 135.475 298.789 138.49 302.713 138.49C306.637 138.49 309.826 135.475 309.826 131.767C309.826 128.058 306.637 125.043 302.713 125.043ZM302.998 134.243V131.891H306.209C306.187 132.72 306.067 133.517 305.826 134.243H302.987H302.998ZM305.015 136.926C305.541 136.304 305.957 135.579 306.253 134.781H308.423C307.514 136.315 305.968 137.402 304.171 137.786C304.478 137.527 304.763 137.237 305.026 136.926H305.015ZM305.639 134.781C305.376 135.444 305.015 136.045 304.576 136.574C303.897 137.392 303.217 137.817 302.998 137.931V134.781H305.639ZM302.998 128.451V125.582C303.086 125.582 303.163 125.582 303.25 125.592C303.601 125.882 304.719 126.856 305.475 128.441H302.987L302.998 128.451ZM306.111 128.451C305.859 127.871 305.53 127.322 305.157 126.804C304.883 126.431 304.576 126.079 304.259 125.758C305.892 126.131 307.327 127.105 308.237 128.462H306.111V128.451ZM302.998 131.342V128.99H305.716C306.012 129.746 306.177 130.544 306.209 131.342H302.998ZM306.779 131.342C306.746 130.544 306.593 129.746 306.319 128.99H308.555C308.949 129.726 309.18 130.523 309.234 131.342H306.779ZM309.245 131.881C309.223 132.699 309.048 133.486 308.697 134.232H306.429C306.648 133.497 306.768 132.709 306.779 131.881H309.245ZM299.063 134.232H296.729C296.378 133.486 296.203 132.699 296.181 131.881H298.713C298.735 132.709 298.855 133.497 299.063 134.232ZM300.006 128.441C300.225 127.975 300.488 127.529 300.806 127.115C301.409 126.297 302.001 125.789 302.253 125.592C302.308 125.592 302.373 125.592 302.439 125.592V128.462H300.017L300.006 128.441ZM302.428 128.98V131.331H299.283C299.316 130.534 299.48 129.736 299.776 128.98H302.428ZM297.2 128.441C298.132 127.063 299.59 126.079 301.266 125.727C300.938 126.058 300.631 126.41 300.346 126.794C299.962 127.312 299.644 127.871 299.392 128.441H297.2ZM302.428 131.881V134.232H299.655C299.425 133.507 299.294 132.709 299.272 131.881H302.417H302.428ZM296.192 131.342C296.247 130.513 296.477 129.726 296.871 128.99H299.173C298.899 129.757 298.746 130.544 298.713 131.342H296.192ZM299.25 134.781C299.546 135.579 299.962 136.294 300.488 136.926C300.762 137.247 301.047 137.547 301.365 137.806C299.546 137.444 297.946 136.325 297.025 134.781H299.261H299.25ZM302.428 134.781V137.9C302.001 137.641 300.642 136.719 299.853 134.781H302.428Z" fill="white"/>
<path d="M284.761 125.3C288.487 125.3 291.523 128.169 291.523 131.692C291.523 135.214 288.487 138.084 284.761 138.084H216.425C212.699 138.084 209.663 135.214 209.663 131.692C209.663 128.169 212.699 125.3 216.425 125.3H284.761ZM284.761 124.637H216.425C212.315 124.637 208.961 127.797 208.961 131.692C208.961 135.587 212.304 138.747 216.425 138.747H284.761C288.871 138.747 292.225 135.587 292.225 131.692C292.225 127.797 288.882 124.637 284.761 124.637Z" fill="white"/>
<path d="M397.133 202.121H144.341C139.91 202.121 136.318 205.516 136.318 209.705V327.373C136.318 331.562 139.91 334.957 144.341 334.957H397.133C401.564 334.957 405.156 331.562 405.156 327.373V209.705C405.156 205.516 401.564 202.121 397.133 202.121Z" fill="#E6FFFB"/>
<path d="M405.156 209.693V215.215H136.318V209.693C136.318 205.507 139.913 202.109 144.341 202.109H397.133C401.561 202.109 405.156 205.507 405.156 209.693Z" fill="#13C2C2"/>
<path d="M379.335 208.542C379.335 209.961 378.118 211.111 376.617 211.111C375.115 211.111 373.898 209.961 373.898 208.542C373.898 207.123 375.115 205.973 376.617 205.973C378.118 205.973 379.335 207.123 379.335 208.542Z" fill="#E6FFFB"/>
<path d="M388.026 208.542C388.026 209.961 386.809 211.111 385.308 211.111C383.806 211.111 382.59 209.961 382.59 208.542C382.59 207.123 383.806 205.973 385.308 205.973C386.809 205.973 388.026 207.123 388.026 208.542Z" fill="#B5F5EC"/>
<path d="M396.728 208.542C396.728 209.961 395.512 211.111 394.01 211.111C392.509 211.111 391.292 209.961 391.292 208.542C391.292 207.123 392.509 205.973 394.01 205.973C395.512 205.973 396.728 207.123 396.728 208.542Z" fill="#006D75"/>
<path d="M154.172 228.07H170.667C173.462 228.07 175.741 230.215 175.741 232.867V248.459C175.741 251.101 173.473 253.255 170.667 253.255H154.172C151.377 253.255 149.098 251.111 149.098 248.459V232.867C149.098 230.225 151.366 228.07 154.172 228.07Z" fill="#87E8DE"/>
<path d="M167.127 224.465H150.632C147.83 224.465 145.558 226.612 145.558 229.262V244.853C145.558 247.502 147.83 249.65 150.632 249.65H167.127C169.929 249.65 172.201 247.502 172.201 244.853V229.262C172.201 226.612 169.929 224.465 167.127 224.465Z" fill="#13C2C2"/>
<path d="M163.773 234.751L156.496 237.113L163.773 239.475V243.339L151.52 239.133V235.093L163.773 230.887V234.751Z" fill="white"/>
<path d="M198.166 228.07H214.661C217.455 228.07 219.735 230.215 219.735 232.867V248.459C219.735 251.101 217.466 253.255 214.661 253.255H198.166C195.371 253.255 193.091 251.111 193.091 248.459V232.867C193.091 230.225 195.36 228.07 198.166 228.07Z" fill="#87E8DE"/>
<path d="M194.636 224.465H211.131C213.926 224.465 216.206 226.609 216.206 229.262V244.853C216.206 247.495 213.937 249.65 211.131 249.65H194.636C191.842 249.65 189.562 247.505 189.562 244.853V229.262C189.562 226.62 191.831 224.465 194.636 224.465Z" fill="#13C2C2"/>
<path d="M203.646 228.961H207.328L201.256 245.35H197.574L203.646 228.961Z" fill="white"/>
<path d="M240.603 228.07H257.098C259.892 228.07 262.172 230.215 262.172 232.867V248.459C262.172 251.101 259.903 253.255 257.098 253.255H240.603C237.808 253.255 235.528 251.111 235.528 248.459V232.867C235.528 230.225 237.797 228.07 240.603 228.07Z" fill="#87E8DE"/>
<path d="M237.073 224.465H253.568C256.363 224.465 258.643 226.609 258.643 229.262V244.853C258.643 247.495 256.374 249.65 253.568 249.65H237.073C234.279 249.65 231.999 247.505 231.999 244.853V229.262C231.999 226.62 234.268 224.465 237.073 224.465Z" fill="#13C2C2"/>
<path d="M239.31 230.887L251.563 235.093V239.133L239.31 243.339V239.475L246.587 237.113L239.31 234.751V230.887Z" fill="white"/>
<path d="M389.209 298.727H372.715C369.912 298.727 367.64 300.874 367.64 303.523V319.115C367.64 321.764 369.912 323.912 372.715 323.912H389.209C392.012 323.912 394.284 321.764 394.284 319.115V303.523C394.284 300.874 392.012 298.727 389.209 298.727Z" fill="#87E8DE"/>
<path d="M385.68 295.133H369.185C366.383 295.133 364.111 297.28 364.111 299.929V315.521C364.111 318.17 366.383 320.318 369.185 320.318H385.68C388.483 320.318 390.755 318.17 390.755 315.521V299.929C390.755 297.28 388.483 295.133 385.68 295.133Z" fill="#00474F"/>
<path d="M377.186 299.516C372.396 299.516 368.495 303.204 368.495 307.731C368.495 312.258 372.396 315.947 377.186 315.947C381.975 315.947 385.877 312.258 385.877 307.731C385.877 303.204 381.975 299.516 377.186 299.516ZM377.537 310.756V307.876H381.46C381.438 308.891 381.285 309.865 381 310.756H377.537ZM380.003 314.03C380.638 313.263 381.153 312.383 381.515 311.409H384.156C383.039 313.284 381.164 314.61 378.95 315.087C379.323 314.776 379.674 314.413 379.992 314.03H380.003ZM380.77 311.409C380.441 312.217 380.003 312.953 379.477 313.595C378.644 314.6 377.811 315.107 377.548 315.263V311.409H380.77ZM377.548 303.67V300.168C377.646 300.168 377.756 300.179 377.854 300.189C378.293 300.541 379.652 301.733 380.584 303.67H377.548ZM381.351 303.67C381.044 302.965 380.649 302.282 380.178 301.65C379.838 301.194 379.477 300.759 379.082 300.365C381.077 300.821 382.83 302.012 383.948 303.66H381.351V303.67ZM377.548 307.203V304.323H380.868C381.23 305.245 381.427 306.219 381.471 307.203H377.548ZM382.173 307.203C382.14 306.229 381.943 305.255 381.614 304.323H384.343C384.825 305.224 385.099 306.187 385.176 307.203H382.173ZM385.187 307.866C385.165 308.871 384.946 309.834 384.518 310.746H381.745C382.008 309.845 382.162 308.881 382.184 307.866H385.198H385.187ZM372.736 310.746H369.876C369.448 309.834 369.229 308.871 369.207 307.866H372.298C372.32 308.881 372.462 309.845 372.736 310.746ZM373.887 303.67C374.161 303.1 374.479 302.561 374.862 302.043C375.597 301.049 376.32 300.417 376.627 300.179C376.704 300.179 376.769 300.179 376.846 300.168V303.67H373.887ZM376.846 304.333V307.213H373.01C373.054 306.229 373.251 305.265 373.613 304.333H376.857H376.846ZM370.456 303.67C371.585 301.981 373.383 300.79 375.421 300.355C375.016 300.759 374.643 301.194 374.303 301.66C373.843 302.292 373.449 302.976 373.131 303.68H370.456V303.67ZM376.846 307.866V310.746H373.46C373.175 309.855 373.021 308.891 372.999 307.866H376.846ZM369.229 307.203C369.295 306.198 369.58 305.224 370.062 304.323H372.868C372.539 305.255 372.342 306.219 372.309 307.203H369.229ZM372.955 311.399C373.317 312.372 373.832 313.253 374.468 314.02C374.797 314.413 375.158 314.776 375.542 315.097C373.317 314.652 371.355 313.294 370.237 311.399H372.966H372.955ZM376.846 311.399V315.201C376.32 314.89 374.665 313.761 373.701 311.399H376.846Z" fill="white"/>
<path d="M259.103 266.747H148.626C146.928 266.747 145.558 265.452 145.558 263.846C145.558 262.24 146.928 260.945 148.626 260.945H259.103C260.802 260.945 262.172 262.24 262.172 263.846C262.172 265.452 260.802 266.747 259.103 266.747Z" fill="#002329"/>
<path d="M259.103 277.489H148.626C146.928 277.489 145.558 276.194 145.558 274.588C145.558 272.983 146.928 271.688 148.626 271.688H259.103C260.802 271.688 262.172 272.983 262.172 274.588C262.172 276.194 260.802 277.489 259.103 277.489Z" fill="#002329"/>
<path d="M259.103 288.223H148.626C146.928 288.223 145.558 286.928 145.558 285.323C145.558 283.717 146.928 282.422 148.626 282.422H259.103C260.802 282.422 262.172 283.717 262.172 285.323C262.172 286.928 260.802 288.223 259.103 288.223Z" fill="#002329"/>
<path d="M259.103 298.966H148.626C146.928 298.966 145.558 297.671 145.558 296.065C145.558 294.459 146.928 293.164 148.626 293.164H259.103C260.802 293.164 262.172 294.459 262.172 296.065C262.172 297.671 260.802 298.966 259.103 298.966Z" fill="#002329"/>
<path d="M259.103 309.7H148.626C146.928 309.7 145.558 308.405 145.558 306.799C145.558 305.193 146.928 303.898 148.626 303.898H259.103C260.802 303.898 262.172 305.193 262.172 306.799C262.172 308.405 260.802 309.7 259.103 309.7Z" fill="#002329"/>
<path d="M259.103 314.641H148.626C146.932 314.641 145.558 315.939 145.558 317.541C145.558 319.144 146.932 320.442 148.626 320.442H259.103C260.798 320.442 262.172 319.144 262.172 317.541C262.172 315.939 260.798 314.641 259.103 314.641Z" fill="#002329"/>
<path d="M353.973 293.164H278.689C277.001 293.164 275.554 294.418 275.521 296.013C275.488 297.64 276.869 298.966 278.59 298.966H353.984C355.683 298.966 357.053 297.671 357.053 296.065C357.053 294.459 355.683 293.164 353.984 293.164H353.973Z" fill="#002329"/>
<path d="M353.973 303.898H278.689C277.001 303.898 275.554 305.152 275.521 306.747C275.488 308.374 276.869 309.7 278.59 309.7H353.984C355.683 309.7 357.053 308.405 357.053 306.799C357.053 305.193 355.683 303.898 353.984 303.898H353.973Z" fill="#002329"/>
<path d="M353.973 314.641H278.689C277.001 314.641 275.554 315.894 275.521 317.49C275.488 319.116 276.869 320.442 278.59 320.442H353.984C355.683 320.442 357.053 319.147 357.053 317.541C357.053 315.936 355.683 314.641 353.984 314.641H353.973Z" fill="#002329"/>
<path d="M390.744 228.008V281.787C390.744 281.901 390.744 282.015 390.733 282.118C390.678 282.719 390.481 283.279 390.174 283.755C389.571 284.698 388.541 285.319 387.379 285.319H278.678C277.362 285.319 276.223 284.532 275.675 283.382C275.444 282.906 275.313 282.357 275.313 281.787V228.008C275.313 227.573 275.39 227.158 275.521 226.765C275.718 226.205 276.058 225.708 276.486 225.325C277.078 224.796 277.845 224.465 278.689 224.465H387.39C388.058 224.465 388.683 224.672 389.209 225.024C389.702 225.356 390.108 225.822 390.371 226.361C390.612 226.848 390.755 227.407 390.755 227.998L390.744 228.008Z" fill="#B5F5EC"/>
<path opacity="0.4" d="M390.733 282.118C390.678 282.719 390.48 283.278 390.174 283.755L332.546 255.109L330.617 254.146L275.521 226.764C275.718 226.205 276.058 225.708 276.485 225.324L332.546 253.193L334.475 254.156L390.733 282.128V282.118Z" fill="#006D75"/>
<path opacity="0.4" d="M390.36 226.372L334.475 254.157L332.546 255.121L275.675 283.393C275.444 282.916 275.313 282.367 275.313 281.798V281.653L330.617 254.157L332.546 253.194L389.198 225.035C389.692 225.367 390.097 225.833 390.36 226.372Z" fill="#006D75"/>
<path d="M322.88 340.853C301.486 313.669 287.983 288.598 287.983 288.598L288.662 307.391C288.662 307.391 308.993 338.346 315.339 344.78C317.871 344.78 322.88 343.961 322.88 340.864V340.853Z" fill="#FBD7C5"/>
<path d="M269.877 284.078C269.877 284.078 266.348 284.969 262.917 285.788C259.761 286.533 258.007 287.404 258.007 287.404C258.007 287.404 257.7 315.935 258.007 324.596C258.314 333.257 255.355 341.203 255.936 346.259C255.936 346.259 282.119 348.01 287.698 345.917C287.698 345.917 285.539 323.643 287.972 317.386C290.449 311.035 291.753 306.601 291.172 304.011C289.681 297.36 287.906 296.365 288.366 290.242C288.827 284.12 269.866 284.088 269.866 284.088L269.877 284.078Z" fill="#F9F6C9"/>
<path d="M281.209 294.375C274.107 294.375 269.789 290.428 269.592 290.241C269.427 290.096 269.427 289.848 269.592 289.703C269.756 289.558 270.008 289.547 270.161 289.703C270.216 289.744 275.247 294.333 283.149 293.515C283.368 293.494 283.577 293.639 283.598 293.857C283.62 294.064 283.467 294.261 283.237 294.282C282.535 294.354 281.867 294.385 281.209 294.385V294.375Z" fill="#F9F6C9"/>
<path d="M264.265 329.922C264.046 329.922 263.871 329.756 263.86 329.549C263.86 329.342 264.024 329.155 264.254 329.155C264.364 329.155 275.171 328.679 282.601 319.406C282.733 319.241 282.996 319.209 283.171 319.334C283.347 319.458 283.391 319.707 283.248 319.873C275.587 329.445 264.397 329.922 264.287 329.922C264.287 329.922 264.287 329.922 264.276 329.922H264.265Z" fill="#F9F6C9"/>
<path d="M263.904 333.546C263.049 333.546 262.555 333.494 262.534 333.494C262.314 333.473 262.15 333.277 262.172 333.069C262.194 332.862 262.391 332.707 262.621 332.727C262.731 332.738 273.494 333.763 282.273 325.62C282.437 325.475 282.689 325.475 282.842 325.62C282.996 325.776 282.996 326.014 282.842 326.159C275.653 332.831 267.159 333.536 263.893 333.536L263.904 333.546Z" fill="#F9F6C9"/>
<path d="M368.265 360.508L375.181 362.818L372.846 368.754L365.382 366.703L368.265 360.508Z" fill="#FFBB99"/>
<path d="M374.151 363.646C374.151 363.646 372.627 361.45 373.175 360.311C373.723 359.171 384.782 352.779 386.612 349.909C388.431 347.039 390.602 348.469 391.621 349.464C392.629 350.458 381.625 373.944 381.625 373.944C381.625 373.944 373.789 371.986 371.772 370.401C369.756 368.816 373.778 366.257 374.162 363.657L374.151 363.646Z" fill="#13C2C2"/>
<path d="M381.373 360.484C381.373 360.608 381.307 360.722 381.198 360.805C380.99 360.971 380.683 360.95 380.507 360.753C380.453 360.691 379.083 359.148 378.896 357.645C378.644 355.646 380.168 354.672 380.233 354.641C380.453 354.496 380.76 354.558 380.913 354.776C381.055 354.983 381.001 355.273 380.77 355.418C380.727 355.449 379.696 356.123 379.872 357.552C380.025 358.775 381.253 360.163 381.264 360.173C381.351 360.267 381.384 360.38 381.373 360.494V360.484Z" fill="white"/>
<path d="M379.587 361.336C379.587 361.46 379.521 361.574 379.411 361.657C379.203 361.823 378.896 361.802 378.721 361.605C378.666 361.543 377.296 359.999 377.11 358.497C376.858 356.498 378.381 355.524 378.447 355.493C378.677 355.348 378.973 355.41 379.126 355.627C379.269 355.834 379.214 356.125 378.984 356.27C378.94 356.301 377.91 356.974 378.085 358.404C378.239 359.637 379.455 361.014 379.477 361.025C379.565 361.118 379.598 361.232 379.587 361.346V361.336Z" fill="white"/>
<path d="M383.094 359.097C383.094 359.221 383.028 359.335 382.919 359.418C382.71 359.584 382.403 359.563 382.228 359.366C382.173 359.304 380.803 357.76 380.617 356.258C380.365 354.259 381.888 353.285 381.954 353.254C382.173 353.119 382.48 353.171 382.634 353.388C382.776 353.596 382.721 353.886 382.491 354.031C382.447 354.062 381.417 354.735 381.592 356.165C381.746 357.398 382.962 358.776 382.984 358.786C383.072 358.879 383.105 358.993 383.094 359.107V359.097Z" fill="white"/>
<path d="M276.464 348.769C276.464 348.769 304.401 341.081 318.386 340.553C332.382 340.035 370.051 359.688 370.051 359.688C370.95 361.75 370.358 364.05 368.9 366.122C368.692 366.422 368.462 366.702 368.232 366.971C367.717 367.593 367.125 368.162 366.467 368.712C366.467 368.712 338.651 365.345 320.074 356.031C320.074 356.031 293.989 362.174 278.963 361.781C278.963 361.781 272.77 356.891 276.475 348.779" fill="#86CFF8"/>
<path d="M287.263 271.96C293.076 266.466 293.076 257.558 287.263 252.063C281.451 246.569 272.027 246.569 266.215 252.064C260.402 257.558 260.402 266.466 266.215 271.96C272.027 277.454 281.451 277.454 287.263 271.96Z" fill="black"/>
<path d="M272.54 255.207C276.735 255.207 280.135 251.992 280.135 248.027C280.135 244.062 276.735 240.848 272.54 240.848C268.345 240.848 264.945 244.062 264.945 248.027C264.945 251.992 268.345 255.207 272.54 255.207Z" fill="black"/>
<path d="M287.402 265.897C287.402 265.897 289.66 263.659 290.964 265.793C292.257 267.928 289.55 273.636 286.021 271.864L287.402 265.897Z" fill="#FBD7C5"/>
<path d="M287.709 271.604C287.676 271.956 287.95 272.267 288.312 272.298C288.684 272.329 289.013 272.07 289.046 271.728C289.079 271.376 288.805 271.065 288.443 271.034C288.07 271.003 287.742 271.262 287.709 271.604Z" fill="white"/>
<path d="M287.007 270.112C287.139 270.122 287.27 270.05 287.325 269.936C288.081 268.164 290.251 267.615 290.273 267.615C290.438 267.574 290.536 267.418 290.493 267.273C290.449 267.128 290.273 267.035 290.109 267.076C290.01 267.097 287.61 267.698 286.744 269.739C286.678 269.884 286.766 270.05 286.92 270.101C286.942 270.101 286.974 270.122 287.007 270.122V270.112Z" fill="#FFBB99"/>
<path d="M289.222 269.389C289.276 269.389 289.342 269.389 289.397 269.357C289.55 269.285 289.605 269.119 289.528 268.985C289.517 268.964 289.2 268.415 288.443 268.031C288.29 267.959 288.104 268 288.016 268.135C287.928 268.27 287.983 268.435 288.137 268.518C288.717 268.819 288.969 269.233 288.969 269.233C289.024 269.316 289.112 269.378 289.222 269.389Z" fill="#FFBB99"/>
<path d="M270.611 276.84L269.877 284.081C269.877 284.081 273.176 287.003 275.927 287.48C278.678 287.956 279.949 284.952 279.949 284.952L280.629 278.218L270.611 276.85V276.84Z" fill="#FBD7C5"/>
<path d="M270.535 277.543L270.239 280.433C271.905 282.557 275.138 283.552 280.103 283.303L280.552 278.91L270.535 277.543Z" fill="#FFBB99"/>
<path d="M288.344 268.756C288.18 269.45 288.005 270.144 287.807 270.849C286.448 275.48 282.788 280.276 278.722 280.774C269.943 281.841 267.027 275.148 266.129 270.32C266.03 269.782 266.37 269.212 266.315 268.58C266.183 267.088 265.723 265.368 265.745 263.711C265.767 262.561 265.811 261.432 265.855 260.416C266.008 257.547 268.025 255.07 270.863 254.293C274.962 253.164 281.078 252.532 286.437 256.189C288.421 257.547 289.517 259.815 289.32 262.177C289.177 263.98 288.892 266.332 288.333 268.766L288.344 268.756Z" fill="#FBD7C5"/>
<path d="M277.494 271.451C277.33 271.441 277.209 271.317 277.187 271.161C277.176 270.985 277.308 270.84 277.494 270.819L278.656 270.736L277.483 266.624C277.439 266.458 277.538 266.282 277.724 266.24C277.9 266.199 278.086 266.292 278.13 266.468L279.522 271.327L277.549 271.462C277.549 271.462 277.516 271.462 277.494 271.462V271.451Z" fill="#FFBB99"/>
<path d="M285.835 260.533C289.046 262.284 288.059 267.07 287.84 270.696C287.84 270.841 288.673 268.106 288.761 268.054C289.331 265.568 289.627 263.175 289.78 261.341C289.977 258.937 288.805 256.617 286.711 255.228C281.045 251.478 274.612 252.11 270.293 253.239C267.301 254.027 265.186 256.534 265.032 259.466C264.978 260.502 264.934 261.652 264.923 262.822C265.449 263.185 266.797 263.454 266.764 264.304C266.687 266.552 266.512 270.375 267.005 270.25C267.586 270.105 268.277 264.988 268.025 263.351C268.025 263.351 268.912 262.242 272.156 261.382C276.321 260.284 280.398 258.471 280.398 258.471C280.398 258.471 282.009 257.746 282.689 256.845C282.689 256.845 283.379 259.186 285.824 260.522L285.835 260.533Z" fill="black"/>
<path d="M282.503 266.718C282.437 267.413 282.755 268.013 283.226 268.055C283.697 268.096 284.125 267.568 284.202 266.874C284.267 266.18 283.949 265.579 283.478 265.537C283.007 265.496 282.579 266.024 282.503 266.718Z" fill="black"/>
<path d="M272.54 265.847C272.475 266.542 272.792 267.142 273.264 267.184C273.735 267.225 274.162 266.697 274.239 266.003C274.305 265.309 273.987 264.708 273.516 264.666C273.045 264.625 272.617 265.153 272.54 265.847Z" fill="black"/>
<path d="M285.309 263.254C284.64 263.068 283.292 262.736 281.812 262.654C281.429 262.633 281.089 262.881 281.111 263.172C281.133 263.41 281.374 263.596 281.692 263.596C282.7 263.617 285.309 263.866 286.492 264.322C286.547 264.156 286.448 263.969 286.284 263.804C286.043 263.545 285.692 263.368 285.309 263.254Z" fill="black"/>
<path d="M271.696 262.177C272.387 262.105 273.779 262.001 275.247 262.167C275.631 262.208 275.916 262.509 275.839 262.799C275.774 263.037 275.5 263.172 275.193 263.12C274.195 262.975 271.587 262.789 270.337 263.037C270.315 262.871 270.447 262.695 270.633 262.561C270.918 262.343 271.291 262.229 271.696 262.188V262.177Z" fill="black"/>
<path d="M281.001 273.668C280.64 274.756 279.62 276.714 276.848 276.465C274.075 276.217 273.483 274.29 273.34 272.984L281.001 273.679V273.668Z" fill="white"/>
<path d="M276.694 278.363C277.494 278.436 278.24 278.094 278.272 278.073C278.437 278.001 278.503 277.814 278.426 277.659C278.349 277.503 278.152 277.441 277.987 277.514C277.987 277.514 277.374 277.793 276.76 277.742C276.102 277.679 275.543 277.296 275.532 277.296C275.39 277.192 275.182 277.224 275.072 277.358C274.962 277.493 274.995 277.69 275.138 277.793C275.171 277.814 275.839 278.28 276.694 278.363Z" fill="#FFBB99"/>
<path d="M266.721 264.012C266.721 264.012 264.649 261.111 263.071 262.924C261.493 264.737 262.874 270.642 266.403 269.555L266.732 264.012H266.721Z" fill="#FBD7C5"/>
<path d="M264.255 269.494C264.222 269.846 264.496 270.157 264.857 270.188C265.23 270.219 265.559 269.96 265.592 269.619C265.625 269.266 265.351 268.955 264.989 268.924C264.616 268.893 264.288 269.152 264.255 269.494Z" fill="white"/>
<path d="M265.833 267.711C265.713 267.7 265.603 267.607 265.581 267.493C265.23 265.68 263.367 264.789 263.345 264.779C263.203 264.716 263.148 264.551 263.214 264.416C263.279 264.281 263.455 264.23 263.597 264.292C263.685 264.333 265.745 265.307 266.14 267.4C266.173 267.545 266.063 267.69 265.91 267.711C265.888 267.711 265.855 267.711 265.833 267.711Z" fill="#FFBB99"/>
<path d="M263.97 266.643C263.97 266.643 263.86 266.623 263.816 266.581C263.696 266.488 263.674 266.322 263.773 266.198C263.784 266.177 264.178 265.711 264.934 265.473C265.088 265.421 265.252 265.504 265.296 265.638C265.351 265.783 265.263 265.939 265.121 265.98C264.54 266.167 264.233 266.519 264.233 266.519C264.167 266.592 264.068 266.633 263.981 266.623L263.97 266.643Z" fill="#FFBB99"/>
<path d="M277.122 265.28C277.144 265.093 277.122 264.907 277.056 264.741C276.891 264.275 276.453 263.922 275.905 263.86L271.061 263.322C270.677 263.28 270.315 263.384 270.041 263.591C269.888 263.705 269.767 263.85 269.669 264.016C269.592 264.15 269.537 264.306 269.515 264.471L269.439 265.062C269.318 266.057 269.603 267.051 270.25 267.797C270.885 268.533 271.664 268.968 272.562 269.092H272.694C273.735 269.227 274.754 268.947 275.576 268.336C276.409 267.714 276.946 266.823 277.067 265.829L277.133 265.331C277.133 265.331 277.133 265.311 277.133 265.3L277.122 265.28ZM276.486 265.746C276.376 266.595 275.927 267.362 275.215 267.89C274.513 268.408 273.636 268.647 272.749 268.543H272.628C271.883 268.429 271.225 268.066 270.688 267.434C270.151 266.802 269.899 265.953 270.009 265.114L270.085 264.523C270.14 264.099 270.546 263.798 270.984 263.85L275.828 264.389C276.278 264.44 276.596 264.824 276.541 265.238L276.475 265.735L276.486 265.746Z" fill="white"/>
<path d="M287.402 266.107C287.38 265.92 287.303 265.744 287.194 265.599C286.975 265.288 286.613 265.06 286.196 265.009L281.341 264.47C280.782 264.408 280.256 264.677 279.982 265.112C279.894 265.257 279.829 265.423 279.807 265.599V265.62L279.73 266.21C279.609 267.205 279.905 268.199 280.541 268.945C281.177 269.681 281.955 270.116 282.843 270.23H282.974C284.015 270.365 285.035 270.085 285.857 269.474C286.69 268.852 287.227 267.961 287.347 266.967L287.413 266.469C287.424 266.345 287.424 266.231 287.413 266.117L287.402 266.107ZM286.777 266.894C286.668 267.744 286.218 268.51 285.506 269.039C284.804 269.557 283.928 269.795 283.04 269.691H282.919C282.174 269.577 281.517 269.215 280.979 268.583C280.442 267.951 280.19 267.101 280.3 266.262L280.377 265.672C280.431 265.247 280.837 264.946 281.275 264.998L286.131 265.537C286.58 265.589 286.898 265.972 286.843 266.386L286.777 266.884V266.894Z" fill="white"/>
<path d="M270.03 263.59C269.57 263.31 268.354 262.678 266.556 262.605L266.71 263.165C268.2 263.258 269.241 263.766 269.669 264.014C269.811 264.097 269.888 264.149 269.888 264.149L270.25 263.724C270.25 263.724 270.162 263.662 270.041 263.59H270.03Z" fill="white"/>
<path d="M276.924 265.31L276.804 264.782C276.804 264.782 277.67 264.606 278.557 264.699C279.5 264.803 280.07 265.145 280.092 265.155L279.785 265.611C279.785 265.611 279.292 265.321 278.492 265.238C277.713 265.155 276.935 265.31 276.935 265.31H276.924Z" fill="white"/>
<path d="M289.024 265.289C287.928 265.341 287.007 265.641 286.953 265.662L287.139 266.18C287.139 266.18 288.103 265.869 289.167 265.838L289.024 265.299V265.289Z" fill="white"/>
<path d="M307.875 397.023L305.398 403.975L298.91 403.394L301.113 396.008L307.875 397.023Z" fill="#FFBB99"/>
<path d="M304.938 403.738C304.938 403.738 306.593 401.625 307.908 401.718C309.223 401.801 319.405 409.405 322.879 410.027C326.365 410.648 325.696 413.072 325.06 414.305C324.425 415.548 297.31 413.912 297.31 413.912C297.31 413.912 296.542 406.287 297.419 403.945C298.296 401.614 302.22 404.287 304.938 403.728V403.738Z" fill="#13C2C2"/>
<path d="M310.571 409.044C310.451 409.075 310.308 409.064 310.188 409.002C309.958 408.878 309.87 408.598 310.001 408.37C310.045 408.298 311.097 406.547 312.533 405.863C314.429 404.951 315.92 405.967 315.986 406.008C316.205 406.164 316.249 406.443 316.084 406.65C315.92 406.858 315.624 406.899 315.405 406.744C315.361 406.713 314.331 406.029 312.972 406.682C311.81 407.241 310.856 408.805 310.845 408.816C310.78 408.919 310.681 408.992 310.56 409.033L310.571 409.044Z" fill="white"/>
<path d="M309.114 407.747C308.993 407.778 308.851 407.767 308.73 407.705C308.5 407.581 308.412 407.301 308.544 407.073C308.588 407.001 309.64 405.25 311.076 404.566C312.972 403.655 314.462 404.67 314.528 404.711C314.747 404.867 314.791 405.146 314.627 405.354C314.462 405.561 314.166 405.602 313.947 405.447C313.903 405.416 312.873 404.732 311.514 405.385C310.341 405.944 309.399 407.509 309.388 407.519C309.322 407.622 309.223 407.695 309.103 407.736L309.114 407.747Z" fill="white"/>
<path d="M312.544 410.087C312.424 410.118 312.281 410.107 312.161 410.045C311.931 409.921 311.843 409.641 311.975 409.413C312.018 409.341 313.071 407.59 314.506 406.906C316.402 405.994 317.893 407.01 317.959 407.051C318.178 407.207 318.222 407.486 318.057 407.693C317.893 407.901 317.597 407.942 317.378 407.787C317.334 407.756 316.304 407.072 314.945 407.725C313.772 408.284 312.829 409.848 312.818 409.859C312.753 409.962 312.654 410.035 312.533 410.076L312.544 410.087Z" fill="white"/>
<path d="M255.552 349.327C255.202 352.166 255.706 355.056 257.12 357.584C259.202 361.303 263.707 365.199 273.384 364.722C294.011 363.697 308.555 364.722 308.555 364.722C308.555 364.722 306.407 371.301 304.094 380.842C302.735 386.457 298.483 400.07 298.483 400.07C301.277 401.624 304.248 401.231 307.24 400.713C307.24 400.713 328.655 365.986 326.792 354.694C324.929 343.401 255.936 346.261 255.936 346.261L255.552 349.338V349.327Z" fill="#8AD5FF"/>
<path d="M298.493 340.324C288.783 334.533 273.395 323.489 273.395 323.489C273.395 323.489 263.717 305.773 258.018 287.395C258.018 287.395 251.552 294.439 256.034 310.207C260.407 325.571 267.422 331.083 267.422 331.083C267.422 331.083 285.374 343.235 294.877 346.25C296.378 343.877 297.112 342.758 298.493 340.334V340.324Z" fill="#FBD7C5"/>
<path d="M282.263 343.533L343.14 342.751C344.225 342.737 345.124 343.564 345.138 344.59L345.151 345.491C345.165 346.517 344.289 347.367 343.204 347.381L282.327 348.164C281.242 348.178 280.342 347.35 280.328 346.324L280.316 345.423C280.302 344.398 281.178 343.547 282.263 343.533Z" fill="#006D75"/>
<path d="M345.139 347.41L292.027 348.073L307.842 320.505L360.856 320.008L345.139 347.41Z" fill="#36CFC9"/>
<path d="M341.84 347.441V347.452L288.827 347.939L304.543 320.547L307.842 320.516L292.126 347.897L341.84 347.441Z" fill="#36CFC9"/>
<path d="M334 334.416C334.045 338.003 330.954 340.957 327.091 341C323.228 341.042 320.046 338.172 320 334.584C319.955 330.997 323.046 328.043 326.909 328C330.772 327.958 333.954 330.828 334 334.416Z" fill="#006D75"/>
<path opacity="0.25" d="M481.547 443.041C506.08 443.041 525.968 439.376 525.968 434.856C525.968 430.336 506.08 426.672 481.547 426.672C457.014 426.672 437.126 430.336 437.126 434.856C437.126 439.376 457.014 443.041 481.547 443.041Z" fill="url(#paint1_linear_15598_12269)"/>
<path d="M453.237 343.616V428.485C453.237 430.35 454.837 431.862 456.81 431.862H508.848C509.846 431.862 510.744 431.479 511.391 430.857C512.027 430.246 512.421 429.407 512.421 428.485V343.616C512.421 341.751 510.821 340.238 508.848 340.238H456.81C456.109 340.238 455.451 340.435 454.892 340.767C453.895 341.367 453.237 342.414 453.237 343.616Z" fill="#002329"/>
<path d="M468.165 361.301H502.919C504.278 361.301 505.374 360.265 505.374 358.981C505.374 357.696 504.278 356.66 502.919 356.66H468.165C466.806 356.66 465.71 357.696 465.71 358.981C465.71 360.265 466.806 361.301 468.165 361.301Z" fill="#00474F"/>
<path d="M502.919 367.238H468.165C466.809 367.238 465.71 368.277 465.71 369.559V369.569C465.71 370.851 466.809 371.89 468.165 371.89H502.919C504.275 371.89 505.374 370.851 505.374 369.569V369.559C505.374 368.277 504.275 367.238 502.919 367.238Z" fill="#00474F"/>
<path d="M468.165 382.477H502.919C504.278 382.477 505.374 381.441 505.374 380.157C505.374 378.872 504.278 377.836 502.919 377.836H468.165C466.806 377.836 465.71 378.872 465.71 380.157C465.71 381.441 466.806 382.477 468.165 382.477Z" fill="#00474F"/>
<path d="M468.165 393.075H502.919C504.278 393.075 505.374 392.039 505.374 390.754C505.374 389.47 504.278 388.434 502.919 388.434H468.165C466.806 388.434 465.71 389.47 465.71 390.754C465.71 392.039 466.806 393.075 468.165 393.075Z" fill="#00474F"/>
<path d="M468.165 403.665H502.919C504.278 403.665 505.374 402.629 505.374 401.344C505.374 400.059 504.278 399.023 502.919 399.023H468.165C466.806 399.023 465.71 400.059 465.71 401.344C465.71 402.629 466.806 403.665 468.165 403.665Z" fill="#00474F"/>
<path d="M468.165 414.251H502.919C504.278 414.251 505.374 413.215 505.374 411.93C505.374 410.645 504.278 409.609 502.919 409.609H468.165C466.806 409.609 465.71 410.645 465.71 411.93C465.71 413.215 466.806 414.251 468.165 414.251Z" fill="#00474F"/>
<path d="M468.165 424.841H502.919C504.278 424.841 505.374 423.804 505.374 422.52C505.374 421.235 504.278 420.199 502.919 420.199H468.165C466.806 420.199 465.71 421.235 465.71 422.52C465.71 423.804 466.806 424.841 468.165 424.841Z" fill="#00474F"/>
<path d="M458.685 357.643C458.685 358.192 459.156 358.638 459.737 358.638C460.318 358.638 460.789 358.192 460.789 357.643C460.789 357.094 460.318 356.648 459.737 356.648C459.156 356.648 458.685 357.094 458.685 357.643Z" fill="white"/>
<path d="M458.685 360.307C458.685 360.856 459.156 361.302 459.737 361.302C460.318 361.302 460.789 360.856 460.789 360.307C460.789 359.758 460.318 359.312 459.737 359.312C459.156 359.312 458.685 359.758 458.685 360.307Z" fill="white"/>
<path d="M458.685 368.233C458.685 368.782 459.156 369.227 459.737 369.227C460.318 369.227 460.789 368.782 460.789 368.233C460.789 367.684 460.318 367.238 459.737 367.238C459.156 367.238 458.685 367.684 458.685 368.233Z" fill="white"/>
<path d="M458.685 370.893C458.685 371.442 459.156 371.888 459.737 371.888C460.318 371.888 460.789 371.442 460.789 370.893C460.789 370.344 460.318 369.898 459.737 369.898C459.156 369.898 458.685 370.344 458.685 370.893Z" fill="white"/>
<path d="M458.685 389.416C458.685 389.966 459.156 390.411 459.737 390.411C460.318 390.411 460.789 389.966 460.789 389.416C460.789 388.867 460.318 388.422 459.737 388.422C459.156 388.422 458.685 388.867 458.685 389.416Z" fill="white"/>
<path d="M458.685 392.069C458.685 392.618 459.156 393.063 459.737 393.063C460.318 393.063 460.789 392.618 460.789 392.069C460.789 391.52 460.318 391.074 459.737 391.074C459.156 391.074 458.685 391.52 458.685 392.069Z" fill="white"/>
<path d="M458.685 378.831C458.685 379.38 459.156 379.825 459.737 379.825C460.318 379.825 460.789 379.38 460.789 378.831C460.789 378.281 460.318 377.836 459.737 377.836C459.156 377.836 458.685 378.281 458.685 378.831Z" fill="white"/>
<path d="M458.685 381.483C458.685 382.032 459.156 382.477 459.737 382.477C460.318 382.477 460.789 382.032 460.789 381.483C460.789 380.934 460.318 380.488 459.737 380.488C459.156 380.488 458.685 380.934 458.685 381.483Z" fill="white"/>
<path d="M458.685 400.006C458.685 400.555 459.156 401.001 459.737 401.001C460.318 401.001 460.789 400.555 460.789 400.006C460.789 399.457 460.318 399.012 459.737 399.012C459.156 399.012 458.685 399.457 458.685 400.006Z" fill="white"/>
<path d="M458.685 402.67C458.685 403.219 459.156 403.665 459.737 403.665C460.318 403.665 460.789 403.219 460.789 402.67C460.789 402.121 460.318 401.676 459.737 401.676C459.156 401.676 458.685 402.121 458.685 402.67Z" fill="white"/>
<path d="M458.685 410.596C458.685 411.145 459.156 411.591 459.737 411.591C460.318 411.591 460.789 411.145 460.789 410.596C460.789 410.047 460.318 409.602 459.737 409.602C459.156 409.602 458.685 410.047 458.685 410.596Z" fill="white"/>
<path d="M458.685 413.256C458.685 413.805 459.156 414.251 459.737 414.251C460.318 414.251 460.789 413.805 460.789 413.256C460.789 412.707 460.318 412.262 459.737 412.262C459.156 412.262 458.685 412.707 458.685 413.256Z" fill="white"/>
<path d="M458.685 421.182C458.685 421.731 459.156 422.177 459.737 422.177C460.318 422.177 460.789 421.731 460.789 421.182C460.789 420.633 460.318 420.188 459.737 420.188C459.156 420.188 458.685 420.633 458.685 421.182Z" fill="white"/>
<path d="M458.685 423.846C458.685 424.395 459.156 424.841 459.737 424.841C460.318 424.841 460.789 424.395 460.789 423.846C460.789 423.297 460.318 422.852 459.737 422.852C459.156 422.852 458.685 423.297 458.685 423.846Z" fill="white"/>
<path d="M453.238 351.075H512.422C512.422 345.087 509.484 340.238 505.867 340.238H459.781C456.164 340.238 453.227 345.087 453.227 351.075H453.238Z" fill="#00474F"/>
<path d="M460.011 260.375V262.675H480.396V341.11H482.829V260.375H460.011Z" fill="#00474F"/>
<path d="M484.693 261.523C484.693 263.17 483.279 264.506 481.537 264.506C479.794 264.506 478.391 263.17 478.391 261.523C478.391 259.876 479.805 258.539 481.537 258.539C483.268 258.539 484.693 259.876 484.693 261.523Z" fill="#13C2C2"/>
<path d="M106.233 174.905H107.801L107.625 175.662C107.877 175.372 108.151 175.154 108.447 175.009C108.743 174.864 109.05 174.791 109.39 174.791C109.916 174.791 110.332 174.957 110.628 175.278C110.935 175.61 111.089 176.055 111.089 176.615C111.089 176.998 111.034 177.381 110.924 177.775C110.815 178.158 110.661 178.511 110.453 178.832C110.212 179.215 109.894 179.516 109.521 179.733C109.149 179.951 108.754 180.054 108.338 180.054C107.921 180.054 107.614 179.961 107.351 179.775C107.099 179.588 106.935 179.329 106.858 178.998L106.321 181.308C106.551 181.37 106.803 181.411 107.044 181.443C109.817 181.764 112.349 179.92 112.7 177.319C113.04 174.719 111.078 172.346 108.294 172.025C107.143 171.891 106.025 172.129 105.094 172.647L103.208 172.346L100.929 182.126L103.636 185.846L104.863 180.686M108.042 178.987C108.436 178.987 108.776 178.78 109.072 178.355C109.357 177.931 109.499 177.423 109.499 176.822C109.499 176.522 109.423 176.283 109.28 176.118C109.127 175.952 108.93 175.869 108.666 175.869C108.261 175.869 107.91 176.076 107.603 176.49C107.307 176.905 107.154 177.402 107.154 177.993C107.154 178.303 107.231 178.552 107.395 178.728C107.56 178.904 107.768 178.998 108.042 178.998V178.987Z" fill="#13C2C2"/>
<path d="M326.807 332.04H327.927L327.793 332.591C327.972 332.379 328.173 332.231 328.375 332.125C328.577 332.019 328.8 331.977 329.047 331.977C329.428 331.977 329.719 332.104 329.943 332.337C330.167 332.569 330.256 332.887 330.256 333.289C330.256 333.564 330.211 333.84 330.144 334.115C330.055 334.39 329.965 334.644 329.808 334.877C329.629 335.152 329.405 335.364 329.136 335.533C328.868 335.681 328.576 335.766 328.285 335.766C327.994 335.766 327.77 335.703 327.591 335.576C327.412 335.449 327.3 335.258 327.233 335.025L326.852 336.698C327.009 336.74 327.188 336.782 327.367 336.803C329.338 337.036 331.152 335.703 331.398 333.84C331.645 331.977 330.234 330.262 328.263 330.029C327.434 329.923 326.65 330.114 325.979 330.474L324.635 330.262L323 337.311L324.926 340L325.799 336.295M328.061 335.067C328.353 335.067 328.577 334.919 328.8 334.602C329.002 334.305 329.114 333.924 329.114 333.501C329.114 333.289 329.069 333.12 328.957 332.993C328.845 332.866 328.711 332.802 328.509 332.802C328.218 332.802 327.972 332.951 327.748 333.247C327.546 333.543 327.434 333.903 327.434 334.327C327.434 334.559 327.502 334.729 327.614 334.856C327.725 334.983 327.882 335.046 328.084 335.046L328.061 335.067Z" fill="white"/>
<path d="M146.325 205.903H147.41L147.289 206.421C147.465 206.224 147.651 206.069 147.859 205.965C148.057 205.861 148.276 205.82 148.506 205.82C148.868 205.82 149.153 205.934 149.361 206.162C149.569 206.39 149.679 206.69 149.679 207.084C149.679 207.353 149.646 207.612 149.569 207.882C149.492 208.151 149.383 208.389 149.251 208.607C149.087 208.876 148.868 209.083 148.605 209.228C148.342 209.373 148.079 209.446 147.783 209.446C147.487 209.446 147.278 209.384 147.103 209.259C146.928 209.135 146.818 208.949 146.763 208.721L146.391 210.316C146.555 210.358 146.72 210.389 146.895 210.409C148.813 210.627 150.556 209.363 150.786 207.571C151.027 205.778 149.668 204.152 147.75 203.924C146.95 203.831 146.182 203.997 145.547 204.349L144.243 204.142L142.675 210.886L144.549 213.455L145.393 209.902M147.585 208.731C147.859 208.731 148.09 208.586 148.287 208.296C148.484 208.006 148.583 207.654 148.583 207.239C148.583 207.032 148.528 206.866 148.429 206.752C148.331 206.638 148.188 206.576 148.002 206.576C147.717 206.576 147.476 206.721 147.268 207.001C147.059 207.281 146.961 207.633 146.961 208.037C146.961 208.255 147.015 208.42 147.125 208.545C147.235 208.669 147.388 208.731 147.574 208.731H147.585Z" fill="#13C2C2"/>
<path d="M156.44 206.189C156.993 206.189 157.396 206.309 157.65 206.547C157.904 206.783 158.031 207.109 158.031 207.525C158.031 207.713 158.002 207.893 157.946 208.064C157.889 208.234 157.796 208.386 157.667 208.519C157.541 208.651 157.371 208.757 157.158 208.835C156.945 208.911 156.682 208.949 156.37 208.949H155.98V210.473H155.072V206.189H156.44ZM156.393 206.934H155.98V208.205H156.279C156.449 208.205 156.596 208.183 156.721 208.138C156.846 208.093 156.943 208.022 157.011 207.927C157.08 207.831 157.114 207.708 157.114 207.558C157.114 207.347 157.055 207.19 156.938 207.089C156.821 206.985 156.639 206.934 156.393 206.934ZM160.111 207.13C160.55 207.13 160.887 207.226 161.122 207.417C161.356 207.608 161.473 207.899 161.473 208.29V210.473H160.849L160.676 210.027H160.653C160.559 210.145 160.463 210.24 160.366 210.314C160.268 210.389 160.156 210.443 160.029 210.479C159.902 210.514 159.748 210.531 159.566 210.531C159.373 210.531 159.199 210.494 159.044 210.42C158.892 210.346 158.772 210.232 158.684 210.08C158.596 209.926 158.552 209.73 158.552 209.494C158.552 209.146 158.674 208.891 158.918 208.727C159.163 208.561 159.529 208.469 160.017 208.451L160.585 208.434V208.29C160.585 208.118 160.541 207.992 160.451 207.912C160.361 207.832 160.236 207.792 160.076 207.792C159.917 207.792 159.762 207.814 159.61 207.859C159.458 207.904 159.305 207.961 159.153 208.029L158.857 207.426C159.031 207.334 159.225 207.262 159.44 207.209C159.657 207.156 159.88 207.13 160.111 207.13ZM160.585 208.955L160.24 208.967C159.951 208.975 159.75 209.026 159.636 209.122C159.525 209.218 159.469 209.344 159.469 209.5C159.469 209.637 159.509 209.734 159.589 209.793C159.669 209.85 159.774 209.878 159.903 209.878C160.094 209.878 160.255 209.821 160.386 209.708C160.519 209.595 160.585 209.434 160.585 209.225V208.955ZM163.354 211.914C162.897 211.914 162.547 211.834 162.305 211.674C162.065 211.516 161.945 211.293 161.945 211.006C161.945 210.809 162.006 210.644 162.129 210.511C162.252 210.378 162.433 210.283 162.671 210.227C162.58 210.188 162.5 210.124 162.431 210.036C162.363 209.946 162.329 209.852 162.329 209.752C162.329 209.627 162.365 209.523 162.437 209.441C162.509 209.357 162.614 209.275 162.75 209.195C162.579 209.121 162.442 209.002 162.34 208.838C162.241 208.674 162.191 208.48 162.191 208.258C162.191 208.02 162.243 207.817 162.346 207.651C162.452 207.483 162.604 207.355 162.803 207.268C163.004 207.18 163.249 207.136 163.536 207.136C163.596 207.136 163.667 207.14 163.747 207.147C163.827 207.155 163.9 207.164 163.966 207.174C164.035 207.184 164.081 207.191 164.104 207.197H165.247V207.651L164.734 207.783C164.781 207.855 164.816 207.933 164.839 208.015C164.863 208.097 164.875 208.184 164.875 208.275C164.875 208.627 164.751 208.901 164.505 209.099C164.261 209.294 163.921 209.392 163.486 209.392C163.382 209.386 163.285 209.378 163.193 209.368C163.148 209.403 163.114 209.44 163.09 209.479C163.067 209.519 163.055 209.56 163.055 209.603C163.055 209.646 163.073 209.682 163.108 209.711C163.145 209.738 163.2 209.76 163.272 209.775C163.346 209.789 163.438 209.796 163.547 209.796H164.104C164.463 209.796 164.737 209.873 164.924 210.027C165.114 210.182 165.208 210.408 165.208 210.707C165.208 211.09 165.048 211.387 164.728 211.598C164.41 211.809 163.952 211.914 163.354 211.914ZM163.392 211.331C163.605 211.331 163.788 211.311 163.94 211.27C164.094 211.23 164.212 211.174 164.294 211.1C164.376 211.027 164.417 210.94 164.417 210.839C164.417 210.757 164.393 210.691 164.344 210.643C164.297 210.596 164.225 210.562 164.127 210.543C164.032 210.523 163.909 210.514 163.758 210.514H163.295C163.186 210.514 163.087 210.531 163 210.566C162.914 210.602 162.845 210.65 162.794 210.713C162.744 210.777 162.718 210.852 162.718 210.936C162.718 211.059 162.777 211.155 162.894 211.226C163.013 211.296 163.179 211.331 163.392 211.331ZM163.536 208.847C163.704 208.847 163.827 208.795 163.905 208.691C163.983 208.588 164.022 208.447 164.022 208.27C164.022 208.072 163.981 207.925 163.899 207.827C163.819 207.728 163.698 207.678 163.536 207.678C163.372 207.678 163.249 207.728 163.167 207.827C163.084 207.925 163.043 208.072 163.043 208.27C163.043 208.447 163.083 208.588 163.164 208.691C163.246 208.795 163.37 208.847 163.536 208.847ZM167.139 207.136C167.442 207.136 167.703 207.194 167.921 207.312C168.14 207.427 168.309 207.595 168.428 207.815C168.547 208.036 168.607 208.306 168.607 208.624V209.058H166.495C166.504 209.31 166.58 209.508 166.72 209.652C166.863 209.795 167.06 209.866 167.312 209.866C167.521 209.866 167.712 209.845 167.886 209.802C168.06 209.759 168.239 209.694 168.422 209.608V210.3C168.26 210.38 168.09 210.438 167.913 210.476C167.737 210.513 167.523 210.531 167.271 210.531C166.943 210.531 166.652 210.471 166.398 210.35C166.146 210.229 165.948 210.044 165.803 209.796C165.661 209.548 165.589 209.235 165.589 208.858C165.589 208.476 165.654 208.157 165.783 207.903C165.914 207.647 166.095 207.456 166.328 207.329C166.56 207.2 166.831 207.136 167.139 207.136ZM167.145 207.771C166.971 207.771 166.827 207.827 166.711 207.938C166.598 208.05 166.533 208.225 166.515 208.463H167.769C167.767 208.33 167.743 208.212 167.696 208.108C167.651 208.005 167.583 207.923 167.491 207.862C167.401 207.802 167.286 207.771 167.145 207.771ZM170.772 206.189C171.325 206.189 171.728 206.309 171.982 206.547C172.236 206.783 172.363 207.109 172.363 207.525C172.363 207.713 172.334 207.893 172.278 208.064C172.221 208.234 172.128 208.386 172 208.519C171.873 208.651 171.703 208.757 171.49 208.835C171.277 208.911 171.014 208.949 170.702 208.949H170.312V210.473H169.404V206.189H170.772ZM170.725 206.934H170.312V208.205H170.611C170.781 208.205 170.928 208.183 171.053 208.138C171.178 208.093 171.275 208.022 171.343 207.927C171.412 207.831 171.446 207.708 171.446 207.558C171.446 207.347 171.387 207.19 171.27 207.089C171.153 206.985 170.971 206.934 170.725 206.934ZM173.995 210.473H173.101V205.914H173.995V210.473ZM177.941 207.197V210.473H177.255L177.135 210.054H177.088C177.018 210.165 176.93 210.256 176.825 210.326C176.719 210.396 176.603 210.448 176.476 210.481C176.349 210.515 176.217 210.531 176.081 210.531C175.846 210.531 175.642 210.49 175.468 210.408C175.294 210.324 175.159 210.194 175.061 210.019C174.965 209.843 174.917 209.614 174.917 209.333V207.197H175.811V209.11C175.811 209.345 175.853 209.521 175.937 209.641C176.021 209.76 176.155 209.819 176.338 209.819C176.52 209.819 176.663 209.778 176.766 209.696C176.87 209.612 176.942 209.49 176.983 209.33C177.026 209.168 177.047 208.971 177.047 208.738V207.197H177.941ZM179.836 211.914C179.379 211.914 179.03 211.834 178.788 211.674C178.547 211.516 178.427 211.293 178.427 211.006C178.427 210.809 178.489 210.644 178.612 210.511C178.735 210.378 178.916 210.283 179.154 210.227C179.062 210.188 178.982 210.124 178.914 210.036C178.845 209.946 178.811 209.852 178.811 209.752C178.811 209.627 178.847 209.523 178.919 209.441C178.992 209.357 179.096 209.275 179.233 209.195C179.061 209.121 178.924 209.002 178.823 208.838C178.723 208.674 178.673 208.48 178.673 208.258C178.673 208.02 178.725 207.817 178.829 207.651C178.934 207.483 179.086 207.355 179.286 207.268C179.487 207.18 179.731 207.136 180.018 207.136C180.079 207.136 180.149 207.14 180.229 207.147C180.309 207.155 180.382 207.164 180.449 207.174C180.517 207.184 180.563 207.191 180.586 207.197H181.729V207.651L181.216 207.783C181.263 207.855 181.298 207.933 181.322 208.015C181.345 208.097 181.357 208.184 181.357 208.275C181.357 208.627 181.234 208.901 180.988 209.099C180.744 209.294 180.404 209.392 179.968 209.392C179.865 209.386 179.767 209.378 179.675 209.368C179.63 209.403 179.596 209.44 179.573 209.479C179.549 209.519 179.538 209.56 179.538 209.603C179.538 209.646 179.555 209.682 179.59 209.711C179.627 209.738 179.682 209.76 179.754 209.775C179.829 209.789 179.92 209.796 180.03 209.796H180.586C180.946 209.796 181.219 209.873 181.407 210.027C181.596 210.182 181.691 210.408 181.691 210.707C181.691 211.09 181.531 211.387 181.21 211.598C180.892 211.809 180.434 211.914 179.836 211.914ZM179.875 211.331C180.087 211.331 180.27 211.311 180.422 211.27C180.577 211.23 180.695 211.174 180.777 211.1C180.859 211.027 180.9 210.94 180.9 210.839C180.9 210.757 180.875 210.691 180.827 210.643C180.78 210.596 180.708 210.562 180.61 210.543C180.514 210.523 180.391 210.514 180.241 210.514H179.778C179.668 210.514 179.57 210.531 179.482 210.566C179.396 210.602 179.328 210.65 179.277 210.713C179.226 210.777 179.201 210.852 179.201 210.936C179.201 211.059 179.259 211.155 179.376 211.226C179.496 211.296 179.662 211.331 179.875 211.331ZM180.018 208.847C180.186 208.847 180.309 208.795 180.387 208.691C180.465 208.588 180.504 208.447 180.504 208.27C180.504 208.072 180.463 207.925 180.381 207.827C180.301 207.728 180.18 207.678 180.018 207.678C179.854 207.678 179.731 207.728 179.649 207.827C179.567 207.925 179.526 208.072 179.526 208.27C179.526 208.447 179.566 208.588 179.646 208.691C179.728 208.795 179.852 208.847 180.018 208.847Z" fill="#13C2C2"/>
<defs>
<linearGradient id="paint0_linear_15598_12269" x1="271.357" y1="365.062" x2="271.272" y2="420.379" gradientUnits="userSpaceOnUse">
<stop stop-color="#BFC8C9"/>
<stop offset="1" stop-color="#BFC8C9" stop-opacity="0.05"/>
</linearGradient>
<linearGradient id="paint1_linear_15598_12269" x1="478.272" y1="431.379" x2="478.272" y2="443.379" gradientUnits="userSpaceOnUse">
<stop stop-color="#002329"/>
<stop offset="1" stop-color="#002329" stop-opacity="0.1"/>
</linearGradient>
</defs>
</svg>
