<svg width="200" height="200" viewBox="0 0 200 200" fill="none" xmlns="http://www.w3.org/2000/svg">
    <ellipse cx="100" cy="99.9414" rx="96.5651" ry="96.5075" transform="rotate(-0.2588 100 99.9414)" fill="#4b4848" />
    <path
        d="M83.506 43C94.8782 43 104.885 49.2273 114.334 56.7415C132.077 70.8503 137.701 97.0118 127.501 118.08C126.498 120.15 126.514 119.704 125.586 121.803C122.995 127.658 124.89 133.591 130.229 136.685C132.011 137.718 133.953 138.215 135.874 138.215C139.357 138.215 142.775 136.58 145.057 133.537C148.82 128.52 148.171 122.48 143.298 118.08C142.117 117.013 140.698 116.207 138.788 114.857C141.224 113.608 143.585 113.013 145.733 113.013C150.48 113.013 154.184 115.92 155.334 121.104C156.093 124.528 157.024 126.618 160.713 128.043C168.408 131.016 169.893 143.664 165.715 145.462C165.665 145.484 165.612 145.494 165.558 145.494C165.024 145.494 164.315 144.521 163.995 143.849C161.269 138.14 157.497 135.162 153.184 135.162C150.324 135.162 147.225 136.472 144.039 139.165C133.964 147.679 122.932 153.92 109.71 156.066C105.835 156.695 102.005 157 98.2425 157C65.9789 157 38.8531 134.554 33.6656 101.604C30.3265 80.397 39.7375 60.1715 57.7121 49.9243C65.8455 45.2876 74.707 42.9996 83.506 43ZM135.093 128.38C134.468 128.017 133.612 127.521 134.429 125.676C134.647 125.183 134.921 124.646 135.223 124.079C135.88 124.518 136.55 124.967 136.805 125.197C138.267 126.518 137.867 127.051 137.314 127.788C136.782 128.498 136.183 128.625 135.874 128.604C135.671 128.589 135.353 128.53 135.093 128.38Z"
        fill="#ffffff" />
</svg>