<?xml version="1.0" standalone="no"?><!DOCTYPE svg PUBLIC "-//W3C//DTD SVG 1.1//EN" "http://www.w3.org/Graphics/SVG/1.1/DTD/svg11.dtd"><svg t="1639911707922" class="icon" viewBox="0 0 1024 1024" version="1.1" xmlns="http://www.w3.org/2000/svg" p-id="8357" xmlns:xlink="http://www.w3.org/1999/xlink" width="32" height="32"><defs><style type="text/css">@font-face { font-weight: 400; font-style: normal; font-family: Circular-Loom; src: url("https://cdn.loom.com/assets/fonts/circular/CircularXXWeb-Book-cd7d2bcec649b1243839a15d5eb8f0a3.woff2") format("woff2"); }
@font-face { font-weight: 500; font-style: normal; font-family: Circular-Loom; src: url("https://cdn.loom.com/assets/fonts/circular/CircularXXWeb-Medium-d74eac43c78bd5852478998ce63dceb3.woff2") format("woff2"); }
@font-face { font-weight: 700; font-style: normal; font-family: Circular-Loom; src: url("https://cdn.loom.com/assets/fonts/circular/CircularXXWeb-Bold-83b8ceaf77f49c7cffa44107561909e4.woff2") format("woff2"); }
@font-face { font-weight: 900; font-style: normal; font-family: Circular-Loom; src: url("https://cdn.loom.com/assets/fonts/circular/CircularXXWeb-Black-bf067ecb8aa777ceb6df7d72226febca.woff2") format("woff2"); }
</style></defs><path d="M512 170.666667a192 192 0 0 1 191.786667 182.954666l0.213333 9.045334h-42.666667a149.333333 149.333333 0 1 0-157.525333 149.12L512 512v42.666667a192 192 0 1 1 0-384z" fill="#3E3E3E" p-id="8358"></path><path d="M512 512c105.472 0 192 75.733333 192 170.666667s-86.528 170.666667-192 170.666666c-102.357333 0-186.88-71.338667-191.786667-162.346666L320 682.666667h42.666667c0 69.973333 66.261333 128 149.333333 128s149.333333-58.026667 149.333333-128c0-67.584-61.781333-123.989333-140.8-127.786667L512 554.666667v-42.666667z" fill="#3E3E3E" p-id="8359"></path><path d="M853.333333 512v42.666667H170.666667v-42.666667z" fill="#3E3E3E" p-id="8360"></path></svg>