<?xml version="1.0" encoding="UTF-8"?>
<svg id="_图层_1" data-name="图层 1" xmlns="http://www.w3.org/2000/svg" viewBox="0 0 284.26 99.52">
  <defs>
    <style>
      .cls-1, .cls-2 {
        fill: #27b7b7;
      }

      .cls-2 {
        font-family: OpenSans-Bold, 'Open Sans';
        font-size: 42.98px;
        font-weight: 700;
        isolation: isolate;
      }
    </style>
  </defs>
  <path class="cls-1" d="m36.03,20.95h10.65l-1.2,5.4c1.72-2.1,3.58-3.67,5.56-4.71,1.99-1.04,4.11-1.56,6.36-1.56,3.56,0,6.37,1.17,8.44,3.52,2.06,2.35,3.09,5.55,3.09,9.6,0,2.77-.38,5.54-1.13,8.33-.75,2.79-1.81,5.32-3.16,7.59-1.67,2.77-3.78,4.92-6.33,6.46-2.54,1.54-5.24,2.32-8.07,2.32s-4.94-.66-6.69-1.99c-1.75-1.33-2.86-3.19-3.35-5.59l-3.65,16.59c1.59.44,3.24.76,4.93.97,18.85,2.32,36.03-10.93,38.37-29.6C82.22,19.6,68.83,2.58,49.99.26c-7.84-.97-15.4.77-21.71,4.47l-12.81-2.19L0,72.78l18.41,26.73,8.35-37.05m21.56-12.23c2.69,0,5.01-1.52,6.96-4.57,1.95-3.04,2.93-6.72,2.93-11.03,0-2.16-.5-3.85-1.51-5.05-1.01-1.2-2.41-1.8-4.2-1.8-2.76,0-5.16,1.48-7.18,4.45-2.02,2.97-3.04,6.57-3.04,10.82,0,2.23.55,3.98,1.64,5.26,1.09,1.28,2.56,1.91,4.4,1.91Z"/>
  <text class="cls-2" transform="translate(88.98 57.46)"><tspan x="0" y="0">PagePlug</tspan></text>
</svg>