<?xml version="1.0" standalone="no"?><!DOCTYPE svg PUBLIC "-//W3C//DTD SVG 1.1//EN" "http://www.w3.org/Graphics/SVG/1.1/DTD/svg11.dtd"><svg t="1631538881667" class="icon" viewBox="0 0 1246 1024" version="1.1" xmlns="http://www.w3.org/2000/svg" p-id="21401" xmlns:xlink="http://www.w3.org/1999/xlink" width="38.9375" height="32"><defs><style type="text/css">@font-face { font-weight: 400; font-style: normal; font-family: Circular-Loom; src: url("https://cdn.loom.com/assets/fonts/circular/CircularXXWeb-Book-cd7d2bcec649b1243839a15d5eb8f0a3.woff2") format("woff2"); }
@font-face { font-weight: 500; font-style: normal; font-family: Circular-Loom; src: url("https://cdn.loom.com/assets/fonts/circular/CircularXXWeb-Medium-d74eac43c78bd5852478998ce63dceb3.woff2") format("woff2"); }
@font-face { font-weight: 700; font-style: normal; font-family: Circular-Loom; src: url("https://cdn.loom.com/assets/fonts/circular/CircularXXWeb-Bold-83b8ceaf77f49c7cffa44107561909e4.woff2") format("woff2"); }
@font-face { font-weight: 900; font-style: normal; font-family: Circular-Loom; src: url("https://cdn.loom.com/assets/fonts/circular/CircularXXWeb-Black-bf067ecb8aa777ceb6df7d72226febca.woff2") format("woff2"); }
</style></defs><path d="M303.339977 664.942675l106.011591-276.040855h39.350086l112.971638 276.040855h-41.612716l-32.193289-83.618933h-115.431018l-30.311864 83.618933h-38.784428z m79.647033-113.352842h93.579424l-28.811641-76.44984q-13.182279-34.775639-19.576668-57.242078a351.974224 351.974224 0 0 1-14.879251 52.716819zM590.853841 664.942675V388.90182h104.130165q27.483576 0 41.99392 2.631537 20.339076 3.393945 34.074715 12.89945t22.134424 26.647387a84.578091 84.578091 0 0 1 8.37419 37.653114q0 35.20603-22.404955 59.590786t-80.962803 24.384757H627.387936v112.221527h-36.534095z m36.534095-144.796021h71.322031q35.402781 0 50.269735-13.182278t14.916142-37.087457q0-17.314038-8.755394-29.660127a40.936387 40.936387 0 0 0-23.068988-16.281098q-9.222676-2.45938-34.087012-2.459381H627.387936v98.670341zM854.278074 664.942675V388.90182h36.534095v276.040855h-36.534095z" fill="#2CBBA6" p-id="21402"></path><path d="M914.938691 915.270707H623.108614a32.857322 32.857322 0 0 1 0-65.702347h291.830077c146.443805 0 265.613082-119.144683 265.613081-265.613081 0-133.728808-99.912328-247.020166-232.411446-263.522609l-23.364114-2.914365-4.734307-23.081285c-27.213044-132.560603-145.361678-228.722376-280.922724-228.722376-158.138159 0-286.788347 128.650188-286.788347 286.788347 0 3.209491 0.073781 6.62803 0.221344 10.772086l1.340362 37.739192-37.616223-3.910415a230.751365 230.751365 0 0 0-23.745317-1.22969c-125.071789 0-226.828653 101.756863-226.828653 226.828653s101.756863 226.828653 226.828653 226.828652h79.032189a32.857322 32.857322 0 0 1 0 65.702347h-79.032189C131.232537 915.270707 0.049188 784.03817 0.049188 622.739707c0-159.540006 128.379656-289.653525 287.255629-292.481812A352.515287 352.515287 0 0 1 863.205624 80.434035a353.941728 353.941728 0 0 1 115.775332 178.464938c153.858837 30.12741 267.223976 166.008176 267.223976 325.080899a331.290835 331.290835 0 0 1-331.266241 331.290835z" fill="#2CBBA6" p-id="21403"></path><path d="M698.033638 1023.999914a32.734353 32.734353 0 0 1-22.195908-8.607831L532.505041 883.913607l135.684016-141.315997a32.857322 32.857322 0 0 1 47.39226 45.498537l-89.115648 92.829313 93.776174 86.016829a32.857322 32.857322 0 0 1-22.208205 57.057625z" fill="#2CBBA6" p-id="21404"></path></svg>