<?xml version="1.0" standalone="no"?><!DOCTYPE svg PUBLIC "-//W3C//DTD SVG 1.1//EN" "http://www.w3.org/Graphics/SVG/1.1/DTD/svg11.dtd"><svg t="1647233233586" class="icon" viewBox="0 0 2184 1024" version="1.1" xmlns="http://www.w3.org/2000/svg" p-id="333004" xmlns:xlink="http://www.w3.org/1999/xlink" width="68.25" height="32"><path d="M552.021333 725.265067h-70.792533V358.8096h-122.248533v-60.074667h315.5968v60.074667h-122.538667v366.455467zM2064.981333 15.530667a100.522667 100.522667 0 0 1 100.522667 100.522666V907.946667a100.522667 100.522667 0 0 1-100.522667 100.522666H115.626667a100.522667 100.522667 0 0 1-100.522667-100.522666V116.053333a100.522667 100.522667 0 0 1 100.522667-100.522666h1949.354666zM115.626667 94.72c-11.776 0-21.333333 9.557333-21.333334 21.333333V907.946667c0 11.776 9.557333 21.333333 21.333334 21.333333h1949.354666c11.776 0 21.333333-9.557333 21.333334-21.333333V116.053333c0-11.776-9.557333-21.333333-21.333334-21.333333H115.626667z m1476.573866 219.357867a44.014933 44.014933 0 0 1 56.763734-4.642134l5.461333 4.642134 166.826667 166.826666c15.4624 15.4624 17.015467 39.5776 4.642133 56.763734l-4.642133 5.461333-166.826667 166.826667a43.997867 43.997867 0 0 1-66.8672-56.763734l4.642133-5.461333 135.645867-135.748267-135.645867-135.68a44.014933 44.014933 0 0 1-4.642133-56.7808l4.642133-5.461333z" p-id="333005"></path></svg>